<?xml version="1.0" encoding="us-ascii" standalone="no"?><svg xmlns="http://www.w3.org/2000/svg" xmlns:xlink="http://www.w3.org/1999/xlink" contentStyleType="text/css" height="822px" preserveAspectRatio="none" style="width:1525px;height:822px;background:#FFFFFF;" version="1.1" viewBox="0 0 1525 822" width="1525px" zoomAndPan="magnify"><defs/><g><!--cluster Informatica--><g id="cluster_Informatica"><path d="M8.5,6.602 L163.5,6.602 A3.75,3.75 0 0 1 166,9.102 L173,31.6699 L1515.5,31.6699 A2.5,2.5 0 0 1 1518,34.1699 L1518,813.102 A2.5,2.5 0 0 1 1515.5,815.602 L8.5,815.602 A2.5,2.5 0 0 1 6,813.102 L6,9.102 A2.5,2.5 0 0 1 8.5,6.602 " fill="none" style="stroke:#000000;stroke-width:1.5;"/><line style="stroke:#000000;stroke-width:1.5;" x1="6" x2="173" y1="31.6699" y2="31.6699"/><text fill="#000000" font-family="sans-serif" font-size="14" font-weight="bold" lengthAdjust="spacing" textLength="154" x="10" y="23.5679">Ingenier&#237;a inform&#225;tica</text></g><!--cluster IV--><g id="cluster_IV"><path d="M1148.5,52.602 L1238.5,52.602 A3.75,3.75 0 0 1 1241,55.102 L1248,77.6699 L1491.5,77.6699 A2.5,2.5 0 0 1 1494,80.1699 L1494,789.102 A2.5,2.5 0 0 1 1491.5,791.602 L1148.5,791.602 A2.5,2.5 0 0 1 1146,789.102 L1146,55.102 A2.5,2.5 0 0 1 1148.5,52.602 " fill="none" style="stroke:#000000;stroke-width:1.5;"/><line style="stroke:#000000;stroke-width:1.5;" x1="1146" x2="1248" y1="77.6699" y2="77.6699"/><text fill="#000000" font-family="sans-serif" font-size="14" font-weight="bold" lengthAdjust="spacing" textLength="89" x="1150" y="69.5679">Cuarto curso</text></g><!--cluster s2--><g id="cluster_s2"><path d="M1327.5,98.602 L1457.5,98.602 A3.75,3.75 0 0 1 1460,101.102 L1467,123.6699 L1467.5,123.6699 A2.5,2.5 0 0 1 1470,126.1699 L1470,765.102 A2.5,2.5 0 0 1 1467.5,767.602 L1327.5,767.602 A2.5,2.5 0 0 1 1325,765.102 L1325,101.102 A2.5,2.5 0 0 1 1327.5,98.602 " fill="none" style="stroke:#000000;stroke-width:1.5;"/><line style="stroke:#000000;stroke-width:1.5;" x1="1325" x2="1467" y1="123.6699" y2="123.6699"/><text fill="#000000" font-family="sans-serif" font-size="14" font-weight="bold" lengthAdjust="spacing" textLength="129" x="1329" y="115.5679">Segundo semestre</text></g><!--cluster s1--><g id="cluster_s1"><path d="M1172.5,98.602 L1288.5,98.602 A3.75,3.75 0 0 1 1291,101.102 L1298,123.6699 L1298.5,123.6699 A2.5,2.5 0 0 1 1301,126.1699 L1301,765.102 A2.5,2.5 0 0 1 1298.5,767.602 L1172.5,767.602 A2.5,2.5 0 0 1 1170,765.102 L1170,101.102 A2.5,2.5 0 0 1 1172.5,98.602 " fill="none" style="stroke:#000000;stroke-width:1.5;"/><line style="stroke:#000000;stroke-width:1.5;" x1="1170" x2="1298" y1="123.6699" y2="123.6699"/><text fill="#000000" font-family="sans-serif" font-size="14" font-weight="bold" lengthAdjust="spacing" textLength="115" x="1174" y="115.5679">Primer semestre</text></g><!--cluster III--><g id="cluster_III"><path d="M776.5,52.602 L862.5,52.602 A3.75,3.75 0 0 1 865,55.102 L872,77.6699 L1119.5,77.6699 A2.5,2.5 0 0 1 1122,80.1699 L1122,789.102 A2.5,2.5 0 0 1 1119.5,791.602 L776.5,791.602 A2.5,2.5 0 0 1 774,789.102 L774,55.102 A2.5,2.5 0 0 1 776.5,52.602 " fill="none" style="stroke:#000000;stroke-width:1.5;"/><line style="stroke:#000000;stroke-width:1.5;" x1="774" x2="872" y1="77.6699" y2="77.6699"/><text fill="#000000" font-family="sans-serif" font-size="14" font-weight="bold" lengthAdjust="spacing" textLength="85" x="778" y="69.5679">Tercer curso</text></g><!--cluster s2--><g id="cluster_s2"><path d="M955.5,98.602 L1085.5,98.602 A3.75,3.75 0 0 1 1088,101.102 L1095,123.6699 L1095.5,123.6699 A2.5,2.5 0 0 1 1098,126.1699 L1098,765.102 A2.5,2.5 0 0 1 1095.5,767.602 L955.5,767.602 A2.5,2.5 0 0 1 953,765.102 L953,101.102 A2.5,2.5 0 0 1 955.5,98.602 " fill="none" style="stroke:#000000;stroke-width:1.5;"/><line style="stroke:#000000;stroke-width:1.5;" x1="953" x2="1095" y1="123.6699" y2="123.6699"/><text fill="#000000" font-family="sans-serif" font-size="14" font-weight="bold" lengthAdjust="spacing" textLength="129" x="957" y="115.5679">Segundo semestre</text></g><!--cluster s1--><g id="cluster_s1"><path d="M800.5,98.602 L916.5,98.602 A3.75,3.75 0 0 1 919,101.102 L926,123.6699 L926.5,123.6699 A2.5,2.5 0 0 1 929,126.1699 L929,765.102 A2.5,2.5 0 0 1 926.5,767.602 L800.5,767.602 A2.5,2.5 0 0 1 798,765.102 L798,101.102 A2.5,2.5 0 0 1 800.5,98.602 " fill="none" style="stroke:#000000;stroke-width:1.5;"/><line style="stroke:#000000;stroke-width:1.5;" x1="798" x2="926" y1="123.6699" y2="123.6699"/><text fill="#000000" font-family="sans-serif" font-size="14" font-weight="bold" lengthAdjust="spacing" textLength="115" x="802" y="115.5679">Primer semestre</text></g><!--cluster II--><g id="cluster_II"><path d="M404.5,52.602 L508.5,52.602 A3.75,3.75 0 0 1 511,55.102 L518,77.6699 L747.5,77.6699 A2.5,2.5 0 0 1 750,80.1699 L750,789.102 A2.5,2.5 0 0 1 747.5,791.602 L404.5,791.602 A2.5,2.5 0 0 1 402,789.102 L402,55.102 A2.5,2.5 0 0 1 404.5,52.602 " fill="none" style="stroke:#000000;stroke-width:1.5;"/><line style="stroke:#000000;stroke-width:1.5;" x1="402" x2="518" y1="77.6699" y2="77.6699"/><text fill="#000000" font-family="sans-serif" font-size="14" font-weight="bold" lengthAdjust="spacing" textLength="103" x="406" y="69.5679">Segundo curso</text></g><!--cluster s2--><g id="cluster_s2"><path d="M583.5,98.602 L713.5,98.602 A3.75,3.75 0 0 1 716,101.102 L723,123.6699 L723.5,123.6699 A2.5,2.5 0 0 1 726,126.1699 L726,765.102 A2.5,2.5 0 0 1 723.5,767.602 L583.5,767.602 A2.5,2.5 0 0 1 581,765.102 L581,101.102 A2.5,2.5 0 0 1 583.5,98.602 " fill="none" style="stroke:#000000;stroke-width:1.5;"/><line style="stroke:#000000;stroke-width:1.5;" x1="581" x2="723" y1="123.6699" y2="123.6699"/><text fill="#000000" font-family="sans-serif" font-size="14" font-weight="bold" lengthAdjust="spacing" textLength="129" x="585" y="115.5679">Segundo semestre</text></g><!--cluster s1--><g id="cluster_s1"><path d="M428.5,98.602 L544.5,98.602 A3.75,3.75 0 0 1 547,101.102 L554,123.6699 L554.5,123.6699 A2.5,2.5 0 0 1 557,126.1699 L557,765.102 A2.5,2.5 0 0 1 554.5,767.602 L428.5,767.602 A2.5,2.5 0 0 1 426,765.102 L426,101.102 A2.5,2.5 0 0 1 428.5,98.602 " fill="none" style="stroke:#000000;stroke-width:1.5;"/><line style="stroke:#000000;stroke-width:1.5;" x1="426" x2="554" y1="123.6699" y2="123.6699"/><text fill="#000000" font-family="sans-serif" font-size="14" font-weight="bold" lengthAdjust="spacing" textLength="115" x="430" y="115.5679">Primer semestre</text></g><!--cluster I--><g id="cluster_I"><path d="M32.5,52.602 L122.5,52.602 A3.75,3.75 0 0 1 125,55.102 L132,77.6699 L375.5,77.6699 A2.5,2.5 0 0 1 378,80.1699 L378,789.102 A2.5,2.5 0 0 1 375.5,791.602 L32.5,791.602 A2.5,2.5 0 0 1 30,789.102 L30,55.102 A2.5,2.5 0 0 1 32.5,52.602 " fill="none" style="stroke:#000000;stroke-width:1.5;"/><line style="stroke:#000000;stroke-width:1.5;" x1="30" x2="132" y1="77.6699" y2="77.6699"/><text fill="#000000" font-family="sans-serif" font-size="14" font-weight="bold" lengthAdjust="spacing" textLength="89" x="34" y="69.5679">Primer curso</text></g><!--cluster s2--><g id="cluster_s2"><path d="M211.5,98.602 L341.5,98.602 A3.75,3.75 0 0 1 344,101.102 L351,123.6699 L351.5,123.6699 A2.5,2.5 0 0 1 354,126.1699 L354,765.102 A2.5,2.5 0 0 1 351.5,767.602 L211.5,767.602 A2.5,2.5 0 0 1 209,765.102 L209,101.102 A2.5,2.5 0 0 1 211.5,98.602 " fill="none" style="stroke:#000000;stroke-width:1.5;"/><line style="stroke:#000000;stroke-width:1.5;" x1="209" x2="351" y1="123.6699" y2="123.6699"/><text fill="#000000" font-family="sans-serif" font-size="14" font-weight="bold" lengthAdjust="spacing" textLength="129" x="213" y="115.5679">Segundo semestre</text></g><!--cluster s1--><g id="cluster_s1"><path d="M56.5,98.602 L172.5,98.602 A3.75,3.75 0 0 1 175,101.102 L182,123.6699 L182.5,123.6699 A2.5,2.5 0 0 1 185,126.1699 L185,765.102 A2.5,2.5 0 0 1 182.5,767.602 L56.5,767.602 A2.5,2.5 0 0 1 54,765.102 L54,101.102 A2.5,2.5 0 0 1 56.5,98.602 " fill="none" style="stroke:#000000;stroke-width:1.5;"/><line style="stroke:#000000;stroke-width:1.5;" x1="54" x2="182" y1="123.6699" y2="123.6699"/><text fill="#000000" font-family="sans-serif" font-size="14" font-weight="bold" lengthAdjust="spacing" textLength="115" x="58" y="115.5679">Primer semestre</text></g><!--class TFG--><g id="elem_TFG"><rect codeLine="8" fill="#DDA0DD" height="75.0317" id="TFG" rx="2.5" ry="2.5" style="stroke:#181818;stroke-width:0.5;" width="86" x="1354" y="136.602"/><text fill="#000000" font-family="sans-serif" font-size="14" lengthAdjust="spacing" textLength="25" x="1384.5" y="156.5679">TFG</text><line style="stroke:#181818;stroke-width:0.5;" x1="1355" x2="1439" y1="165.6699" y2="165.6699"/><text fill="#000000" font-family="sans-serif" font-size="11" font-style="italic" lengthAdjust="spacing" textLength="74" x="1360" y="181.4288">&#171;ProyectoFinal&#187;</text><line style="stroke:#181818;stroke-width:1.0;" x1="1355" x2="1439" y1="188.6518" y2="188.6518"/><text fill="#000000" font-family="sans-serif" font-size="11" lengthAdjust="spacing" textLength="57" x="1360" y="204.4107">12 cr&#233;ditos</text></g><!--class DSI--><g id="elem_DSI"><rect codeLine="13" fill="#FFFF99" height="75.0317" id="DSI" rx="2.5" ry="2.5" style="stroke:#181818;stroke-width:0.5;" width="65" x="1364.5" y="406.602"/><text fill="#000000" font-family="sans-serif" font-size="14" lengthAdjust="spacing" textLength="23" x="1385.5" y="426.5679">DSI</text><line style="stroke:#181818;stroke-width:0.5;" x1="1365.5" x2="1428.5" y1="435.6699" y2="435.6699"/><text fill="#000000" font-family="sans-serif" font-size="11" font-style="italic" lengthAdjust="spacing" textLength="53" x="1370.5" y="451.4288">&#171;Conexion&#187;</text><line style="stroke:#181818;stroke-width:1.0;" x1="1365.5" x2="1428.5" y1="458.6518" y2="458.6518"/><text fill="#000000" font-family="sans-serif" font-size="11" lengthAdjust="spacing" textLength="51" x="1370.5" y="474.4107">6 cr&#233;ditos</text></g><!--class EEE--><g id="elem_EEE"><rect codeLine="18" fill="#FFFF99" height="75.0317" id="EEE" rx="2.5" ry="2.5" style="stroke:#181818;stroke-width:0.5;" width="65" x="1364.5" y="541.602"/><text fill="#000000" font-family="sans-serif" font-size="14" lengthAdjust="spacing" textLength="24" x="1385" y="561.5679">EEE</text><line style="stroke:#181818;stroke-width:0.5;" x1="1365.5" x2="1428.5" y1="570.6699" y2="570.6699"/><text fill="#000000" font-family="sans-serif" font-size="11" font-style="italic" lengthAdjust="spacing" textLength="53" x="1370.5" y="586.4288">&#171;Conexion&#187;</text><line style="stroke:#181818;stroke-width:1.0;" x1="1365.5" x2="1428.5" y1="593.6518" y2="593.6518"/><text fill="#000000" font-family="sans-serif" font-size="11" lengthAdjust="spacing" textLength="51" x="1370.5" y="609.4107">6 cr&#233;ditos</text></g><!--class OPT4--><g id="elem_OPT4"><rect codeLine="28" fill="#FFFFFF" height="75.0317" id="OPT4" rx="2.5" ry="2.5" style="stroke:#181818;stroke-width:0.5;" width="64" x="1365" y="676.602"/><text fill="#000000" font-family="sans-serif" font-size="14" lengthAdjust="spacing" textLength="35" x="1379.5" y="696.5679">OPT4</text><line style="stroke:#181818;stroke-width:0.5;" x1="1366" x2="1428" y1="705.6699" y2="705.6699"/><text fill="#000000" font-family="sans-serif" font-size="11" font-style="italic" lengthAdjust="spacing" textLength="52" x="1371" y="721.4288">&#171;Optativa&#187;</text><line style="stroke:#181818;stroke-width:1.0;" x1="1366" x2="1428" y1="728.6518" y2="728.6518"/><text fill="#000000" font-family="sans-serif" font-size="11" lengthAdjust="spacing" textLength="51" x="1371" y="744.4107">6 cr&#233;ditos</text></g><!--class SDPP--><g id="elem_SDPP"><rect codeLine="35" fill="#FFA500" height="75.0317" id="SDPP" rx="2.5" ry="2.5" style="stroke:#181818;stroke-width:0.5;" width="71" x="1199.5" y="136.602"/><text fill="#000000" font-family="sans-serif" font-size="14" lengthAdjust="spacing" textLength="34" x="1218" y="156.5679">SDPP</text><line style="stroke:#181818;stroke-width:0.5;" x1="1200.5" x2="1269.5" y1="165.6699" y2="165.6699"/><text fill="#000000" font-family="sans-serif" font-size="11" font-style="italic" lengthAdjust="spacing" textLength="59" x="1205.5" y="181.4288">&#171;Desarrollo&#187;</text><line style="stroke:#181818;stroke-width:1.0;" x1="1200.5" x2="1269.5" y1="188.6518" y2="188.6518"/><text fill="#000000" font-family="sans-serif" font-size="11" lengthAdjust="spacing" textLength="51" x="1205.5" y="204.4107">6 cr&#233;ditos</text></g><!--class INTA--><g id="elem_INTA"><rect codeLine="40" fill="#FFA500" height="75.0317" id="INTA" rx="2.5" ry="2.5" style="stroke:#181818;stroke-width:0.5;" width="71" x="1199.5" y="271.602"/><text fill="#000000" font-family="sans-serif" font-size="14" lengthAdjust="spacing" textLength="33" x="1218.5" y="291.5679">INTA</text><line style="stroke:#181818;stroke-width:0.5;" x1="1200.5" x2="1269.5" y1="300.6699" y2="300.6699"/><text fill="#000000" font-family="sans-serif" font-size="11" font-style="italic" lengthAdjust="spacing" textLength="59" x="1205.5" y="316.4288">&#171;Desarrollo&#187;</text><line style="stroke:#181818;stroke-width:1.0;" x1="1200.5" x2="1269.5" y1="323.6518" y2="323.6518"/><text fill="#000000" font-family="sans-serif" font-size="11" lengthAdjust="spacing" textLength="51" x="1205.5" y="339.4107">6 cr&#233;ditos</text></g><!--class PRY--><g id="elem_PRY"><rect codeLine="45" fill="#90EE90" height="75.0317" id="PRY" rx="2.5" ry="2.5" style="stroke:#181818;stroke-width:0.5;" width="84" x="1193" y="406.602"/><text fill="#000000" font-family="sans-serif" font-size="14" lengthAdjust="spacing" textLength="25" x="1222.5" y="426.5679">PRY</text><line style="stroke:#181818;stroke-width:0.5;" x1="1194" x2="1276" y1="435.6699" y2="435.6699"/><text fill="#000000" font-family="sans-serif" font-size="11" font-style="italic" lengthAdjust="spacing" textLength="72" x="1199" y="451.4288">&#171;Construccion&#187;</text><line style="stroke:#181818;stroke-width:1.0;" x1="1194" x2="1276" y1="458.6518" y2="458.6518"/><text fill="#000000" font-family="sans-serif" font-size="11" lengthAdjust="spacing" textLength="51" x="1199" y="474.4107">6 cr&#233;ditos</text></g><!--class PRCT--><g id="elem_PRCT"><rect codeLine="50" fill="#FFFF99" height="75.0317" id="PRCT" rx="2.5" ry="2.5" style="stroke:#181818;stroke-width:0.5;" width="65" x="1202.5" y="541.602"/><text fill="#000000" font-family="sans-serif" font-size="14" lengthAdjust="spacing" textLength="34" x="1218" y="561.5679">PRCT</text><line style="stroke:#181818;stroke-width:0.5;" x1="1203.5" x2="1266.5" y1="570.6699" y2="570.6699"/><text fill="#000000" font-family="sans-serif" font-size="11" font-style="italic" lengthAdjust="spacing" textLength="53" x="1208.5" y="586.4288">&#171;Conexion&#187;</text><line style="stroke:#181818;stroke-width:1.0;" x1="1203.5" x2="1266.5" y1="593.6518" y2="593.6518"/><text fill="#000000" font-family="sans-serif" font-size="11" lengthAdjust="spacing" textLength="51" x="1208.5" y="609.4107">6 cr&#233;ditos</text></g><!--class OPT3--><g id="elem_OPT3"><rect codeLine="55" fill="#FFFFFF" height="75.0317" id="OPT3" rx="2.5" ry="2.5" style="stroke:#181818;stroke-width:0.5;" width="64" x="1203" y="676.602"/><text fill="#000000" font-family="sans-serif" font-size="14" lengthAdjust="spacing" textLength="35" x="1217.5" y="696.5679">OPT3</text><line style="stroke:#181818;stroke-width:0.5;" x1="1204" x2="1266" y1="705.6699" y2="705.6699"/><text fill="#000000" font-family="sans-serif" font-size="11" font-style="italic" lengthAdjust="spacing" textLength="52" x="1209" y="721.4288">&#171;Optativa&#187;</text><line style="stroke:#181818;stroke-width:1.0;" x1="1204" x2="1266" y1="728.6518" y2="728.6518"/><text fill="#000000" font-family="sans-serif" font-size="11" lengthAdjust="spacing" textLength="51" x="1209" y="744.4107">6 cr&#233;ditos</text></g><!--class PW2--><g id="elem_PW2"><rect codeLine="65" fill="#FFA500" height="75.0317" id="PW2" rx="2.5" ry="2.5" style="stroke:#181818;stroke-width:0.5;" width="71" x="989.5" y="136.602"/><text fill="#000000" font-family="sans-serif" font-size="14" lengthAdjust="spacing" textLength="29" x="1010.5" y="156.5679">PW2</text><line style="stroke:#181818;stroke-width:0.5;" x1="990.5" x2="1059.5" y1="165.6699" y2="165.6699"/><text fill="#000000" font-family="sans-serif" font-size="11" font-style="italic" lengthAdjust="spacing" textLength="59" x="995.5" y="181.4288">&#171;Desarrollo&#187;</text><line style="stroke:#181818;stroke-width:1.0;" x1="990.5" x2="1059.5" y1="188.6518" y2="188.6518"/><text fill="#000000" font-family="sans-serif" font-size="11" lengthAdjust="spacing" textLength="51" x="995.5" y="204.4107">6 cr&#233;ditos</text></g><!--class SICR--><g id="elem_SICR"><rect codeLine="70" fill="#FFA500" height="75.0317" id="SICR" rx="2.5" ry="2.5" style="stroke:#181818;stroke-width:0.5;" width="71" x="989.5" y="271.602"/><text fill="#000000" font-family="sans-serif" font-size="14" lengthAdjust="spacing" textLength="31" x="1009.5" y="291.5679">SICR</text><line style="stroke:#181818;stroke-width:0.5;" x1="990.5" x2="1059.5" y1="300.6699" y2="300.6699"/><text fill="#000000" font-family="sans-serif" font-size="11" font-style="italic" lengthAdjust="spacing" textLength="59" x="995.5" y="316.4288">&#171;Desarrollo&#187;</text><line style="stroke:#181818;stroke-width:1.0;" x1="990.5" x2="1059.5" y1="323.6518" y2="323.6518"/><text fill="#000000" font-family="sans-serif" font-size="11" lengthAdjust="spacing" textLength="51" x="995.5" y="339.4107">6 cr&#233;ditos</text></g><!--class ASW--><g id="elem_ASW"><rect codeLine="75" fill="#90EE90" height="75.0317" id="ASW" rx="2.5" ry="2.5" style="stroke:#181818;stroke-width:0.5;" width="84" x="983" y="406.602"/><text fill="#000000" font-family="sans-serif" font-size="14" lengthAdjust="spacing" textLength="30" x="1010" y="426.5679">ASW</text><line style="stroke:#181818;stroke-width:0.5;" x1="984" x2="1066" y1="435.6699" y2="435.6699"/><text fill="#000000" font-family="sans-serif" font-size="11" font-style="italic" lengthAdjust="spacing" textLength="72" x="989" y="451.4288">&#171;Construccion&#187;</text><line style="stroke:#181818;stroke-width:1.0;" x1="984" x2="1066" y1="458.6518" y2="458.6518"/><text fill="#000000" font-family="sans-serif" font-size="11" lengthAdjust="spacing" textLength="51" x="989" y="474.4107">6 cr&#233;ditos</text></g><!--class ING4--><g id="elem_ING4"><rect codeLine="80" fill="#FFFF99" height="75.0317" id="ING4" rx="2.5" ry="2.5" style="stroke:#181818;stroke-width:0.5;" width="65" x="992.5" y="541.602"/><text fill="#000000" font-family="sans-serif" font-size="14" lengthAdjust="spacing" textLength="34" x="1008" y="561.5679">ING4</text><line style="stroke:#181818;stroke-width:0.5;" x1="993.5" x2="1056.5" y1="570.6699" y2="570.6699"/><text fill="#000000" font-family="sans-serif" font-size="11" font-style="italic" lengthAdjust="spacing" textLength="53" x="998.5" y="586.4288">&#171;Conexion&#187;</text><line style="stroke:#181818;stroke-width:1.0;" x1="993.5" x2="1056.5" y1="593.6518" y2="593.6518"/><text fill="#000000" font-family="sans-serif" font-size="11" lengthAdjust="spacing" textLength="51" x="998.5" y="609.4107">6 cr&#233;ditos</text></g><!--class OPT2--><g id="elem_OPT2"><rect codeLine="85" fill="#FFFFFF" height="75.0317" id="OPT2" rx="2.5" ry="2.5" style="stroke:#181818;stroke-width:0.5;" width="64" x="993" y="676.602"/><text fill="#000000" font-family="sans-serif" font-size="14" lengthAdjust="spacing" textLength="35" x="1007.5" y="696.5679">OPT2</text><line style="stroke:#181818;stroke-width:0.5;" x1="994" x2="1056" y1="705.6699" y2="705.6699"/><text fill="#000000" font-family="sans-serif" font-size="11" font-style="italic" lengthAdjust="spacing" textLength="52" x="999" y="721.4288">&#171;Optativa&#187;</text><line style="stroke:#181818;stroke-width:1.0;" x1="994" x2="1056" y1="728.6518" y2="728.6518"/><text fill="#000000" font-family="sans-serif" font-size="11" lengthAdjust="spacing" textLength="51" x="999" y="744.4107">6 cr&#233;ditos</text></g><!--class PW1--><g id="elem_PW1"><rect codeLine="92" fill="#FFA500" height="75.0317" id="PW1" rx="2.5" ry="2.5" style="stroke:#181818;stroke-width:0.5;" width="71" x="827.5" y="136.602"/><text fill="#000000" font-family="sans-serif" font-size="14" lengthAdjust="spacing" textLength="29" x="848.5" y="156.5679">PW1</text><line style="stroke:#181818;stroke-width:0.5;" x1="828.5" x2="897.5" y1="165.6699" y2="165.6699"/><text fill="#000000" font-family="sans-serif" font-size="11" font-style="italic" lengthAdjust="spacing" textLength="59" x="833.5" y="181.4288">&#171;Desarrollo&#187;</text><line style="stroke:#181818;stroke-width:1.0;" x1="828.5" x2="897.5" y1="188.6518" y2="188.6518"/><text fill="#000000" font-family="sans-serif" font-size="11" lengthAdjust="spacing" textLength="51" x="833.5" y="204.4107">6 cr&#233;ditos</text></g><!--class ETI--><g id="elem_ETI"><rect codeLine="97" fill="#FFFF99" height="75.0317" id="ETI" rx="2.5" ry="2.5" style="stroke:#181818;stroke-width:0.5;" width="65" x="830.5" y="271.602"/><text fill="#000000" font-family="sans-serif" font-size="14" lengthAdjust="spacing" textLength="21" x="852.5" y="291.5679">ETI</text><line style="stroke:#181818;stroke-width:0.5;" x1="831.5" x2="894.5" y1="300.6699" y2="300.6699"/><text fill="#000000" font-family="sans-serif" font-size="11" font-style="italic" lengthAdjust="spacing" textLength="53" x="836.5" y="316.4288">&#171;Conexion&#187;</text><line style="stroke:#181818;stroke-width:1.0;" x1="831.5" x2="894.5" y1="323.6518" y2="323.6518"/><text fill="#000000" font-family="sans-serif" font-size="11" lengthAdjust="spacing" textLength="51" x="836.5" y="339.4107">6 cr&#233;ditos</text></g><!--class ISW2--><g id="elem_ISW2"><rect codeLine="102" fill="#90EE90" height="75.0317" id="ISW2" rx="2.5" ry="2.5" style="stroke:#181818;stroke-width:0.5;" width="84" x="821" y="406.602"/><text fill="#000000" font-family="sans-serif" font-size="14" lengthAdjust="spacing" textLength="34" x="846" y="426.5679">ISW2</text><line style="stroke:#181818;stroke-width:0.5;" x1="822" x2="904" y1="435.6699" y2="435.6699"/><text fill="#000000" font-family="sans-serif" font-size="11" font-style="italic" lengthAdjust="spacing" textLength="72" x="827" y="451.4288">&#171;Construccion&#187;</text><line style="stroke:#181818;stroke-width:1.0;" x1="822" x2="904" y1="458.6518" y2="458.6518"/><text fill="#000000" font-family="sans-serif" font-size="11" lengthAdjust="spacing" textLength="51" x="827" y="474.4107">6 cr&#233;ditos</text></g><!--class ING3--><g id="elem_ING3"><rect codeLine="107" fill="#FFFF99" height="75.0317" id="ING3" rx="2.5" ry="2.5" style="stroke:#181818;stroke-width:0.5;" width="65" x="830.5" y="541.602"/><text fill="#000000" font-family="sans-serif" font-size="14" lengthAdjust="spacing" textLength="34" x="846" y="561.5679">ING3</text><line style="stroke:#181818;stroke-width:0.5;" x1="831.5" x2="894.5" y1="570.6699" y2="570.6699"/><text fill="#000000" font-family="sans-serif" font-size="11" font-style="italic" lengthAdjust="spacing" textLength="53" x="836.5" y="586.4288">&#171;Conexion&#187;</text><line style="stroke:#181818;stroke-width:1.0;" x1="831.5" x2="894.5" y1="593.6518" y2="593.6518"/><text fill="#000000" font-family="sans-serif" font-size="11" lengthAdjust="spacing" textLength="51" x="836.5" y="609.4107">6 cr&#233;ditos</text></g><!--class OPT1--><g id="elem_OPT1"><rect codeLine="112" fill="#FFFFFF" height="75.0317" id="OPT1" rx="2.5" ry="2.5" style="stroke:#181818;stroke-width:0.5;" width="64" x="831" y="676.602"/><text fill="#000000" font-family="sans-serif" font-size="14" lengthAdjust="spacing" textLength="35" x="845.5" y="696.5679">OPT1</text><line style="stroke:#181818;stroke-width:0.5;" x1="832" x2="894" y1="705.6699" y2="705.6699"/><text fill="#000000" font-family="sans-serif" font-size="11" font-style="italic" lengthAdjust="spacing" textLength="52" x="837" y="721.4288">&#171;Optativa&#187;</text><line style="stroke:#181818;stroke-width:1.0;" x1="832" x2="894" y1="728.6518" y2="728.6518"/><text fill="#000000" font-family="sans-serif" font-size="11" lengthAdjust="spacing" textLength="51" x="837" y="744.4107">6 cr&#233;ditos</text></g><!--class EDA2--><g id="elem_EDA2"><rect codeLine="122" fill="#FFA500" height="75.0317" id="EDA2" rx="2.5" ry="2.5" style="stroke:#181818;stroke-width:0.5;" width="71" x="617.5" y="136.602"/><text fill="#000000" font-family="sans-serif" font-size="14" lengthAdjust="spacing" textLength="35" x="635.5" y="156.5679">EDA2</text><line style="stroke:#181818;stroke-width:0.5;" x1="618.5" x2="687.5" y1="165.6699" y2="165.6699"/><text fill="#000000" font-family="sans-serif" font-size="11" font-style="italic" lengthAdjust="spacing" textLength="59" x="623.5" y="181.4288">&#171;Desarrollo&#187;</text><line style="stroke:#181818;stroke-width:1.0;" x1="618.5" x2="687.5" y1="188.6518" y2="188.6518"/><text fill="#000000" font-family="sans-serif" font-size="11" lengthAdjust="spacing" textLength="51" x="623.5" y="204.4107">6 cr&#233;ditos</text></g><!--class BD2--><g id="elem_BD2"><rect codeLine="127" fill="#FFA500" height="75.0317" id="BD2" rx="2.5" ry="2.5" style="stroke:#181818;stroke-width:0.5;" width="71" x="617.5" y="271.602"/><text fill="#000000" font-family="sans-serif" font-size="14" lengthAdjust="spacing" textLength="27" x="639.5" y="291.5679">BD2</text><line style="stroke:#181818;stroke-width:0.5;" x1="618.5" x2="687.5" y1="300.6699" y2="300.6699"/><text fill="#000000" font-family="sans-serif" font-size="11" font-style="italic" lengthAdjust="spacing" textLength="59" x="623.5" y="316.4288">&#171;Desarrollo&#187;</text><line style="stroke:#181818;stroke-width:1.0;" x1="618.5" x2="687.5" y1="323.6518" y2="323.6518"/><text fill="#000000" font-family="sans-serif" font-size="11" lengthAdjust="spacing" textLength="51" x="623.5" y="339.4107">6 cr&#233;ditos</text></g><!--class ISW1--><g id="elem_ISW1"><rect codeLine="132" fill="#90EE90" height="75.0317" id="ISW1" rx="2.5" ry="2.5" style="stroke:#181818;stroke-width:0.5;" width="84" x="611" y="406.602"/><text fill="#000000" font-family="sans-serif" font-size="14" lengthAdjust="spacing" textLength="34" x="636" y="426.5679">ISW1</text><line style="stroke:#181818;stroke-width:0.5;" x1="612" x2="694" y1="435.6699" y2="435.6699"/><text fill="#000000" font-family="sans-serif" font-size="11" font-style="italic" lengthAdjust="spacing" textLength="72" x="617" y="451.4288">&#171;Construccion&#187;</text><line style="stroke:#181818;stroke-width:1.0;" x1="612" x2="694" y1="458.6518" y2="458.6518"/><text fill="#000000" font-family="sans-serif" font-size="11" lengthAdjust="spacing" textLength="51" x="617" y="474.4107">6 cr&#233;ditos</text></g><!--class SOP--><g id="elem_SOP"><rect codeLine="137" fill="#FFFF99" height="75.0317" id="SOP" rx="2.5" ry="2.5" style="stroke:#181818;stroke-width:0.5;" width="65" x="620.5" y="541.602"/><text fill="#000000" font-family="sans-serif" font-size="14" lengthAdjust="spacing" textLength="27" x="639.5" y="561.5679">SOP</text><line style="stroke:#181818;stroke-width:0.5;" x1="621.5" x2="684.5" y1="570.6699" y2="570.6699"/><text fill="#000000" font-family="sans-serif" font-size="11" font-style="italic" lengthAdjust="spacing" textLength="53" x="626.5" y="586.4288">&#171;Conexion&#187;</text><line style="stroke:#181818;stroke-width:1.0;" x1="621.5" x2="684.5" y1="593.6518" y2="593.6518"/><text fill="#000000" font-family="sans-serif" font-size="11" lengthAdjust="spacing" textLength="51" x="626.5" y="609.4107">6 cr&#233;ditos</text></g><!--class LPR--><g id="elem_LPR"><rect codeLine="142" fill="#FFFF99" height="75.0317" id="LPR" rx="2.5" ry="2.5" style="stroke:#181818;stroke-width:0.5;" width="65" x="620.5" y="676.602"/><text fill="#000000" font-family="sans-serif" font-size="14" lengthAdjust="spacing" textLength="24" x="641" y="696.5679">LPR</text><line style="stroke:#181818;stroke-width:0.5;" x1="621.5" x2="684.5" y1="705.6699" y2="705.6699"/><text fill="#000000" font-family="sans-serif" font-size="11" font-style="italic" lengthAdjust="spacing" textLength="53" x="626.5" y="721.4288">&#171;Conexion&#187;</text><line style="stroke:#181818;stroke-width:1.0;" x1="621.5" x2="684.5" y1="728.6518" y2="728.6518"/><text fill="#000000" font-family="sans-serif" font-size="11" lengthAdjust="spacing" textLength="51" x="626.5" y="744.4107">6 cr&#233;ditos</text></g><!--class EDA1--><g id="elem_EDA1"><rect codeLine="149" fill="#FFA500" height="75.0317" id="EDA1" rx="2.5" ry="2.5" style="stroke:#181818;stroke-width:0.5;" width="71" x="455.5" y="136.602"/><text fill="#000000" font-family="sans-serif" font-size="14" lengthAdjust="spacing" textLength="35" x="473.5" y="156.5679">EDA1</text><line style="stroke:#181818;stroke-width:0.5;" x1="456.5" x2="525.5" y1="165.6699" y2="165.6699"/><text fill="#000000" font-family="sans-serif" font-size="11" font-style="italic" lengthAdjust="spacing" textLength="59" x="461.5" y="181.4288">&#171;Desarrollo&#187;</text><line style="stroke:#181818;stroke-width:1.0;" x1="456.5" x2="525.5" y1="188.6518" y2="188.6518"/><text fill="#000000" font-family="sans-serif" font-size="11" lengthAdjust="spacing" textLength="51" x="461.5" y="204.4107">6 cr&#233;ditos</text></g><!--class BD1--><g id="elem_BD1"><rect codeLine="154" fill="#FFA500" height="75.0317" id="BD1" rx="2.5" ry="2.5" style="stroke:#181818;stroke-width:0.5;" width="71" x="455.5" y="271.602"/><text fill="#000000" font-family="sans-serif" font-size="14" lengthAdjust="spacing" textLength="27" x="477.5" y="291.5679">BD1</text><line style="stroke:#181818;stroke-width:0.5;" x1="456.5" x2="525.5" y1="300.6699" y2="300.6699"/><text fill="#000000" font-family="sans-serif" font-size="11" font-style="italic" lengthAdjust="spacing" textLength="59" x="461.5" y="316.4288">&#171;Desarrollo&#187;</text><line style="stroke:#181818;stroke-width:1.0;" x1="456.5" x2="525.5" y1="323.6518" y2="323.6518"/><text fill="#000000" font-family="sans-serif" font-size="11" lengthAdjust="spacing" textLength="51" x="461.5" y="339.4107">6 cr&#233;ditos</text></g><!--class MNUM--><g id="elem_MNUM"><rect codeLine="159" fill="#DDA0DD" height="75.0317" id="MNUM" rx="2.5" ry="2.5" style="stroke:#181818;stroke-width:0.5;" width="70" x="456" y="406.602"/><text fill="#000000" font-family="sans-serif" font-size="14" lengthAdjust="spacing" textLength="47" x="467.5" y="426.5679">MNUM</text><line style="stroke:#181818;stroke-width:0.5;" x1="457" x2="525" y1="435.6699" y2="435.6699"/><text fill="#000000" font-family="sans-serif" font-size="11" font-style="italic" lengthAdjust="spacing" textLength="58" x="462" y="451.4288">&#171;Ingenieria&#187;</text><line style="stroke:#181818;stroke-width:1.0;" x1="457" x2="525" y1="458.6518" y2="458.6518"/><text fill="#000000" font-family="sans-serif" font-size="11" lengthAdjust="spacing" textLength="51" x="462" y="474.4107">6 cr&#233;ditos</text></g><!--class RED--><g id="elem_RED"><rect codeLine="164" fill="#DDA0DD" height="75.0317" id="RED" rx="2.5" ry="2.5" style="stroke:#181818;stroke-width:0.5;" width="70" x="456" y="541.602"/><text fill="#000000" font-family="sans-serif" font-size="14" lengthAdjust="spacing" textLength="27" x="477.5" y="561.5679">RED</text><line style="stroke:#181818;stroke-width:0.5;" x1="457" x2="525" y1="570.6699" y2="570.6699"/><text fill="#000000" font-family="sans-serif" font-size="11" font-style="italic" lengthAdjust="spacing" textLength="58" x="462" y="586.4288">&#171;Ingenieria&#187;</text><line style="stroke:#181818;stroke-width:1.0;" x1="457" x2="525" y1="593.6518" y2="593.6518"/><text fill="#000000" font-family="sans-serif" font-size="11" lengthAdjust="spacing" textLength="51" x="462" y="609.4107">6 cr&#233;ditos</text></g><!--class EST--><g id="elem_EST"><rect codeLine="169" fill="#DDA0DD" height="75.0317" id="EST" rx="2.5" ry="2.5" style="stroke:#181818;stroke-width:0.5;" width="70" x="456" y="676.602"/><text fill="#000000" font-family="sans-serif" font-size="14" lengthAdjust="spacing" textLength="24" x="479" y="696.5679">EST</text><line style="stroke:#181818;stroke-width:0.5;" x1="457" x2="525" y1="705.6699" y2="705.6699"/><text fill="#000000" font-family="sans-serif" font-size="11" font-style="italic" lengthAdjust="spacing" textLength="58" x="462" y="721.4288">&#171;Ingenieria&#187;</text><line style="stroke:#181818;stroke-width:1.0;" x1="457" x2="525" y1="728.6518" y2="728.6518"/><text fill="#000000" font-family="sans-serif" font-size="11" lengthAdjust="spacing" textLength="51" x="462" y="744.4107">6 cr&#233;ditos</text></g><!--class PRG2--><g id="elem_PRG2"><rect codeLine="179" fill="#FFA500" height="75.0317" id="PRG2" rx="2.5" ry="2.5" style="stroke:#181818;stroke-width:0.5;" width="71" x="245.5" y="136.602"/><text fill="#000000" font-family="sans-serif" font-size="14" lengthAdjust="spacing" textLength="35" x="263.5" y="156.5679">PRG2</text><line style="stroke:#181818;stroke-width:0.5;" x1="246.5" x2="315.5" y1="165.6699" y2="165.6699"/><text fill="#000000" font-family="sans-serif" font-size="11" font-style="italic" lengthAdjust="spacing" textLength="59" x="251.5" y="181.4288">&#171;Desarrollo&#187;</text><line style="stroke:#181818;stroke-width:1.0;" x1="246.5" x2="315.5" y1="188.6518" y2="188.6518"/><text fill="#000000" font-family="sans-serif" font-size="11" lengthAdjust="spacing" textLength="51" x="251.5" y="204.4107">6 cr&#233;ditos</text></g><!--class TIC--><g id="elem_TIC"><rect codeLine="184" fill="#FFFF99" height="75.0317" id="TIC" rx="2.5" ry="2.5" style="stroke:#181818;stroke-width:0.5;" width="65" x="248.5" y="271.602"/><text fill="#000000" font-family="sans-serif" font-size="14" lengthAdjust="spacing" textLength="22" x="270" y="291.5679">TIC</text><line style="stroke:#181818;stroke-width:0.5;" x1="249.5" x2="312.5" y1="300.6699" y2="300.6699"/><text fill="#000000" font-family="sans-serif" font-size="11" font-style="italic" lengthAdjust="spacing" textLength="53" x="254.5" y="316.4288">&#171;Conexion&#187;</text><line style="stroke:#181818;stroke-width:1.0;" x1="249.5" x2="312.5" y1="323.6518" y2="323.6518"/><text fill="#000000" font-family="sans-serif" font-size="11" lengthAdjust="spacing" textLength="51" x="254.5" y="339.4107">6 cr&#233;ditos</text></g><!--class LOG--><g id="elem_LOG"><rect codeLine="189" fill="#DDA0DD" height="75.0317" id="LOG" rx="2.5" ry="2.5" style="stroke:#181818;stroke-width:0.5;" width="70" x="246" y="406.602"/><text fill="#000000" font-family="sans-serif" font-size="14" lengthAdjust="spacing" textLength="28" x="267" y="426.5679">LOG</text><line style="stroke:#181818;stroke-width:0.5;" x1="247" x2="315" y1="435.6699" y2="435.6699"/><text fill="#000000" font-family="sans-serif" font-size="11" font-style="italic" lengthAdjust="spacing" textLength="58" x="252" y="451.4288">&#171;Ingenieria&#187;</text><line style="stroke:#181818;stroke-width:1.0;" x1="247" x2="315" y1="458.6518" y2="458.6518"/><text fill="#000000" font-family="sans-serif" font-size="11" lengthAdjust="spacing" textLength="51" x="252" y="474.4107">6 cr&#233;ditos</text></g><!--class MAT2--><g id="elem_MAT2"><rect codeLine="194" fill="#DDA0DD" height="75.0317" id="MAT2" rx="2.5" ry="2.5" style="stroke:#181818;stroke-width:0.5;" width="70" x="246" y="541.602"/><text fill="#000000" font-family="sans-serif" font-size="14" lengthAdjust="spacing" textLength="38" x="262" y="561.5679">MAT2</text><line style="stroke:#181818;stroke-width:0.5;" x1="247" x2="315" y1="570.6699" y2="570.6699"/><text fill="#000000" font-family="sans-serif" font-size="11" font-style="italic" lengthAdjust="spacing" textLength="58" x="252" y="586.4288">&#171;Ingenieria&#187;</text><line style="stroke:#181818;stroke-width:1.0;" x1="247" x2="315" y1="593.6518" y2="593.6518"/><text fill="#000000" font-family="sans-serif" font-size="11" lengthAdjust="spacing" textLength="51" x="252" y="609.4107">6 cr&#233;ditos</text></g><!--class MDISC--><g id="elem_MDISC"><rect codeLine="199" fill="#DDA0DD" height="75.0317" id="MDISC" rx="2.5" ry="2.5" style="stroke:#181818;stroke-width:0.5;" width="70" x="246" y="676.602"/><text fill="#000000" font-family="sans-serif" font-size="14" lengthAdjust="spacing" textLength="45" x="258.5" y="696.5679">MDISC</text><line style="stroke:#181818;stroke-width:0.5;" x1="247" x2="315" y1="705.6699" y2="705.6699"/><text fill="#000000" font-family="sans-serif" font-size="11" font-style="italic" lengthAdjust="spacing" textLength="58" x="252" y="721.4288">&#171;Ingenieria&#187;</text><line style="stroke:#181818;stroke-width:1.0;" x1="247" x2="315" y1="728.6518" y2="728.6518"/><text fill="#000000" font-family="sans-serif" font-size="11" lengthAdjust="spacing" textLength="51" x="252" y="744.4107">6 cr&#233;ditos</text></g><!--class PRG1--><g id="elem_PRG1"><rect codeLine="206" fill="#FFA500" height="75.0317" id="PRG1" rx="2.5" ry="2.5" style="stroke:#181818;stroke-width:0.5;" width="71" x="83.5" y="136.602"/><text fill="#000000" font-family="sans-serif" font-size="14" lengthAdjust="spacing" textLength="35" x="101.5" y="156.5679">PRG1</text><line style="stroke:#181818;stroke-width:0.5;" x1="84.5" x2="153.5" y1="165.6699" y2="165.6699"/><text fill="#000000" font-family="sans-serif" font-size="11" font-style="italic" lengthAdjust="spacing" textLength="59" x="89.5" y="181.4288">&#171;Desarrollo&#187;</text><line style="stroke:#181818;stroke-width:1.0;" x1="84.5" x2="153.5" y1="188.6518" y2="188.6518"/><text fill="#000000" font-family="sans-serif" font-size="11" lengthAdjust="spacing" textLength="51" x="89.5" y="204.4107">6 cr&#233;ditos</text></g><!--class FPySw--><g id="elem_FPySw"><rect codeLine="211" fill="#90EE90" height="75.0317" id="FPySw" rx="2.5" ry="2.5" style="stroke:#181818;stroke-width:0.5;" width="84" x="77" y="271.602"/><text fill="#000000" font-family="sans-serif" font-size="14" lengthAdjust="spacing" textLength="41" x="98.5" y="291.5679">FPySw</text><line style="stroke:#181818;stroke-width:0.5;" x1="78" x2="160" y1="300.6699" y2="300.6699"/><text fill="#000000" font-family="sans-serif" font-size="11" font-style="italic" lengthAdjust="spacing" textLength="72" x="83" y="316.4288">&#171;Construccion&#187;</text><line style="stroke:#181818;stroke-width:1.0;" x1="78" x2="160" y1="323.6518" y2="323.6518"/><text fill="#000000" font-family="sans-serif" font-size="11" lengthAdjust="spacing" textLength="51" x="83" y="339.4107">6 cr&#233;ditos</text></g><!--class TEO--><g id="elem_TEO"><rect codeLine="216" fill="#FFFF99" height="75.0317" id="TEO" rx="2.5" ry="2.5" style="stroke:#181818;stroke-width:0.5;" width="65" x="86.5" y="406.602"/><text fill="#000000" font-family="sans-serif" font-size="14" lengthAdjust="spacing" textLength="27" x="105.5" y="426.5679">TEO</text><line style="stroke:#181818;stroke-width:0.5;" x1="87.5" x2="150.5" y1="435.6699" y2="435.6699"/><text fill="#000000" font-family="sans-serif" font-size="11" font-style="italic" lengthAdjust="spacing" textLength="53" x="92.5" y="451.4288">&#171;Conexion&#187;</text><line style="stroke:#181818;stroke-width:1.0;" x1="87.5" x2="150.5" y1="458.6518" y2="458.6518"/><text fill="#000000" font-family="sans-serif" font-size="11" lengthAdjust="spacing" textLength="51" x="92.5" y="474.4107">6 cr&#233;ditos</text></g><!--class MAT1--><g id="elem_MAT1"><rect codeLine="221" fill="#DDA0DD" height="75.0317" id="MAT1" rx="2.5" ry="2.5" style="stroke:#181818;stroke-width:0.5;" width="70" x="84" y="541.602"/><text fill="#000000" font-family="sans-serif" font-size="14" lengthAdjust="spacing" textLength="38" x="100" y="561.5679">MAT1</text><line style="stroke:#181818;stroke-width:0.5;" x1="85" x2="153" y1="570.6699" y2="570.6699"/><text fill="#000000" font-family="sans-serif" font-size="11" font-style="italic" lengthAdjust="spacing" textLength="58" x="90" y="586.4288">&#171;Ingenieria&#187;</text><line style="stroke:#181818;stroke-width:1.0;" x1="85" x2="153" y1="593.6518" y2="593.6518"/><text fill="#000000" font-family="sans-serif" font-size="11" lengthAdjust="spacing" textLength="51" x="90" y="609.4107">6 cr&#233;ditos</text></g><!--class FIS--><g id="elem_FIS"><rect codeLine="226" fill="#DDA0DD" height="75.0317" id="FIS" rx="2.5" ry="2.5" style="stroke:#181818;stroke-width:0.5;" width="70" x="84" y="676.602"/><text fill="#000000" font-family="sans-serif" font-size="14" lengthAdjust="spacing" textLength="20" x="109" y="696.5679">FIS</text><line style="stroke:#181818;stroke-width:0.5;" x1="85" x2="153" y1="705.6699" y2="705.6699"/><text fill="#000000" font-family="sans-serif" font-size="11" font-style="italic" lengthAdjust="spacing" textLength="58" x="90" y="721.4288">&#171;Ingenieria&#187;</text><line style="stroke:#181818;stroke-width:1.0;" x1="85" x2="153" y1="728.6518" y2="728.6518"/><text fill="#000000" font-family="sans-serif" font-size="11" lengthAdjust="spacing" textLength="51" x="90" y="744.4107">6 cr&#233;ditos</text></g><!--link PRG1 to FPySw--><!--link FPySw to TEO--><!--link TEO to MAT1--><!--link MAT1 to FIS--><!--link PRG2 to TIC--><!--link TIC to LOG--><!--link LOG to MAT2--><!--link MAT2 to MDISC--><!--link EDA1 to BD1--><!--link BD1 to MNUM--><!--link MNUM to RED--><!--link RED to EST--><!--link EDA2 to BD2--><!--link BD2 to ISW1--><!--link ISW1 to SOP--><!--link SOP to LPR--><!--link PW1 to ETI--><!--link ETI to ISW2--><!--link ISW2 to ING3--><!--link ING3 to OPT1--><!--link PW2 to SICR--><!--link SICR to ASW--><!--link ASW to ING4--><!--link ING4 to OPT2--><!--link SDPP to INTA--><!--link INTA to PRY--><!--link PRY to PRCT--><!--link PRCT to OPT3--><!--link TFG to DSI--><!--link DSI to EEE--><!--link EEE to OPT4--><!--SRC=[tLdTRjCm5Bu_Js6j5xkgrgG5gL9LAUIdYaHRAmbK4-8Yf6QBw9B9QO49zM6uv8Ads8lXup5afwLZOqn7MBdwSdpqnV7dy-FpSYbOKSfY9G0ky-93VYPONBslvKM-BekSvGqxYgipKPL2Nd_FMQdVNN_5bqVi2m1JuzV4rzhUt-HoNRDY8viQRTZFSMlMkDei5MURQbcpHbo8PYs5QOgZMELDmx9emZf1uFM2eFKUnwZPl1kFol5en6Lz9Ofr7PLLlXgFHoSAFC6tEtEwtUv-FuxB2ddzRLckwsRFtEqUTa4Qiqwand1ua9rVL-9pMLSF8_Rythp2C2J0wvZjCekyMUQbKy-WTypkIN1t0bByZPjTahRXlkMRysnmGp2A3gxV_7AjTF8n_xV_TRih8KTBYCloGiWx59G6dEF7UCzwlOCV4uWcbx9UhUgdsgQnsWj4gV7ab7M6lJ0SzkvIa5hwJL4yeRfvucSaZnsbcpuvtMnRGIgEjNOo8GkbdSU9KdpX4jt7QUmdHAbvwOAinEBPP41LOkv_4vhumY6wDyECPc8NftZIq1LDdwfe7FfnoOetZnENmi2Z6fXU15IPAOqvP3MMpZb9YRta2I5UVnUMb6eSiggXocmwUpNzeqxDRJkfp9-AMX86H9c5QKQAsVx8P2hdaUgbP4BrzCzYd-O1EvyGtSHJ3qiIcjI2EFK9Akp11LCoeNh-H_mg_KGsRSh2EKbLA-quHBKJnIdDsAGUhOFkc_DokHJLssNtPlV1pHuqSVNV0V-z1UAYWrvv2yOlrgvT6rSH0J0gMA0wZW6FvBPZ5_HnQCDu2W7ejDB4LJ87cD1PjYgD0frBcQZAO02p61DJkOFswRPyke2bbObXGGEwgZ5HLKa0LXFML_54hK3BCCnYm7v8owKBkXbXeRD97tGNm4In-aQljYqs9a5t9qtKInU0VS6Mrm7eXbpBgmkWBpTiuym3VQzWeZmv1UpesvYVWMwbjzps0V3MqK2xUD47UDbdhKiO0bwqjQOFu0S0]--></g></svg>