<?xml version="1.0" encoding="us-ascii" standalone="no"?><svg xmlns="http://www.w3.org/2000/svg" xmlns:xlink="http://www.w3.org/1999/xlink" contentStyleType="text/css" height="771px" preserveAspectRatio="none" style="width:1559px;height:771px;background:#FFFFFF;" version="1.1" viewBox="0 0 1559 771" width="1559px" zoomAndPan="magnify"><defs/><g><!--cluster Informatica--><g id="cluster_Informatica"><path d="M8.5,6.602 L163.5,6.602 A3.75,3.75 0 0 1 166,9.102 L173,31.6699 L1549.5,31.6699 A2.5,2.5 0 0 1 1552,34.1699 L1552,762.102 A2.5,2.5 0 0 1 1549.5,764.602 L8.5,764.602 A2.5,2.5 0 0 1 6,762.102 L6,9.102 A2.5,2.5 0 0 1 8.5,6.602 " fill="none" style="stroke:#000000;stroke-width:1.5;"/><line style="stroke:#000000;stroke-width:1.5;" x1="6" x2="173" y1="31.6699" y2="31.6699"/><text fill="#000000" font-family="sans-serif" font-size="14" font-weight="bold" lengthAdjust="spacing" textLength="154" x="10" y="23.5679">Ingenier&#237;a inform&#225;tica</text></g><!--cluster IV--><g id="cluster_IV"><path d="M1170.5,52.602 L1260.5,52.602 A3.75,3.75 0 0 1 1263,55.102 L1270,77.6699 L1525.5,77.6699 A2.5,2.5 0 0 1 1528,80.1699 L1528,738.102 A2.5,2.5 0 0 1 1525.5,740.602 L1170.5,740.602 A2.5,2.5 0 0 1 1168,738.102 L1168,55.102 A2.5,2.5 0 0 1 1170.5,52.602 " fill="none" style="stroke:#000000;stroke-width:1.5;"/><line style="stroke:#000000;stroke-width:1.5;" x1="1168" x2="1270" y1="77.6699" y2="77.6699"/><text fill="#000000" font-family="sans-serif" font-size="14" font-weight="bold" lengthAdjust="spacing" textLength="89" x="1172" y="69.5679">Cuarto curso</text></g><!--cluster s2--><g id="cluster_s2"><path d="M1360.5,98.602 L1490.5,98.602 A3.75,3.75 0 0 1 1493,101.102 L1500,123.6699 L1501.5,123.6699 A2.5,2.5 0 0 1 1504,126.1699 L1504,593.102 A2.5,2.5 0 0 1 1501.5,595.602 L1360.5,595.602 A2.5,2.5 0 0 1 1358,593.102 L1358,101.102 A2.5,2.5 0 0 1 1360.5,98.602 " fill="none" style="stroke:#000000;stroke-width:1.5;"/><line style="stroke:#000000;stroke-width:1.5;" x1="1358" x2="1500" y1="123.6699" y2="123.6699"/><text fill="#000000" font-family="sans-serif" font-size="14" font-weight="bold" lengthAdjust="spacing" textLength="129" x="1362" y="115.5679">Segundo semestre</text></g><!--cluster s1--><g id="cluster_s1"><path d="M1194.5,108.102 L1310.5,108.102 A3.75,3.75 0 0 1 1313,110.602 L1320,133.1699 L1331.5,133.1699 A2.5,2.5 0 0 1 1334,135.6699 L1334,714.102 A2.5,2.5 0 0 1 1331.5,716.602 L1194.5,716.602 A2.5,2.5 0 0 1 1192,714.102 L1192,110.602 A2.5,2.5 0 0 1 1194.5,108.102 " fill="none" style="stroke:#000000;stroke-width:1.5;"/><line style="stroke:#000000;stroke-width:1.5;" x1="1192" x2="1320" y1="133.1699" y2="133.1699"/><text fill="#000000" font-family="sans-serif" font-size="14" font-weight="bold" lengthAdjust="spacing" textLength="115" x="1196" y="125.0679">Primer semestre</text></g><!--cluster III--><g id="cluster_III"><path d="M787.5,62.102 L873.5,62.102 A3.75,3.75 0 0 1 876,64.602 L883,87.1699 L1141.5,87.1699 A2.5,2.5 0 0 1 1144,89.6699 L1144,738.102 A2.5,2.5 0 0 1 1141.5,740.602 L787.5,740.602 A2.5,2.5 0 0 1 785,738.102 L785,64.602 A2.5,2.5 0 0 1 787.5,62.102 " fill="none" style="stroke:#000000;stroke-width:1.5;"/><line style="stroke:#000000;stroke-width:1.5;" x1="785" x2="883" y1="87.1699" y2="87.1699"/><text fill="#000000" font-family="sans-serif" font-size="14" font-weight="bold" lengthAdjust="spacing" textLength="85" x="789" y="79.0679">Tercer curso</text></g><!--cluster s2--><g id="cluster_s2"><path d="M977.5,108.102 L1107.5,108.102 A3.75,3.75 0 0 1 1110,110.602 L1117,133.1699 L1117.5,133.1699 A2.5,2.5 0 0 1 1120,135.6699 L1120,714.102 A2.5,2.5 0 0 1 1117.5,716.602 L977.5,716.602 A2.5,2.5 0 0 1 975,714.102 L975,110.602 A2.5,2.5 0 0 1 977.5,108.102 " fill="none" style="stroke:#000000;stroke-width:1.5;"/><line style="stroke:#000000;stroke-width:1.5;" x1="975" x2="1117" y1="133.1699" y2="133.1699"/><text fill="#000000" font-family="sans-serif" font-size="14" font-weight="bold" lengthAdjust="spacing" textLength="129" x="979" y="125.0679">Segundo semestre</text></g><!--cluster s1--><g id="cluster_s1"><path d="M811.5,108.102 L927.5,108.102 A3.75,3.75 0 0 1 930,110.602 L937,133.1699 L948.5,133.1699 A2.5,2.5 0 0 1 951,135.6699 L951,714.102 A2.5,2.5 0 0 1 948.5,716.602 L811.5,716.602 A2.5,2.5 0 0 1 809,714.102 L809,110.602 A2.5,2.5 0 0 1 811.5,108.102 " fill="none" style="stroke:#000000;stroke-width:1.5;"/><line style="stroke:#000000;stroke-width:1.5;" x1="809" x2="937" y1="133.1699" y2="133.1699"/><text fill="#000000" font-family="sans-serif" font-size="14" font-weight="bold" lengthAdjust="spacing" textLength="115" x="813" y="125.0679">Primer semestre</text></g><!--cluster II--><g id="cluster_II"><path d="M415.5,62.102 L519.5,62.102 A3.75,3.75 0 0 1 522,64.602 L529,87.1699 L758.5,87.1699 A2.5,2.5 0 0 1 761,89.6699 L761,738.102 A2.5,2.5 0 0 1 758.5,740.602 L415.5,740.602 A2.5,2.5 0 0 1 413,738.102 L413,64.602 A2.5,2.5 0 0 1 415.5,62.102 " fill="none" style="stroke:#000000;stroke-width:1.5;"/><line style="stroke:#000000;stroke-width:1.5;" x1="413" x2="529" y1="87.1699" y2="87.1699"/><text fill="#000000" font-family="sans-serif" font-size="14" font-weight="bold" lengthAdjust="spacing" textLength="103" x="417" y="79.0679">Segundo curso</text></g><!--cluster s2--><g id="cluster_s2"><path d="M594.5,108.102 L724.5,108.102 A3.75,3.75 0 0 1 727,110.602 L734,133.1699 L734.5,133.1699 A2.5,2.5 0 0 1 737,135.6699 L737,714.102 A2.5,2.5 0 0 1 734.5,716.602 L594.5,716.602 A2.5,2.5 0 0 1 592,714.102 L592,110.602 A2.5,2.5 0 0 1 594.5,108.102 " fill="none" style="stroke:#000000;stroke-width:1.5;"/><line style="stroke:#000000;stroke-width:1.5;" x1="592" x2="734" y1="133.1699" y2="133.1699"/><text fill="#000000" font-family="sans-serif" font-size="14" font-weight="bold" lengthAdjust="spacing" textLength="129" x="596" y="125.0679">Segundo semestre</text></g><!--cluster s1--><g id="cluster_s1"><path d="M439.5,108.102 L555.5,108.102 A3.75,3.75 0 0 1 558,110.602 L565,133.1699 L565.5,133.1699 A2.5,2.5 0 0 1 568,135.6699 L568,714.102 A2.5,2.5 0 0 1 565.5,716.602 L439.5,716.602 A2.5,2.5 0 0 1 437,714.102 L437,110.602 A2.5,2.5 0 0 1 439.5,108.102 " fill="none" style="stroke:#000000;stroke-width:1.5;"/><line style="stroke:#000000;stroke-width:1.5;" x1="437" x2="565" y1="133.1699" y2="133.1699"/><text fill="#000000" font-family="sans-serif" font-size="14" font-weight="bold" lengthAdjust="spacing" textLength="115" x="441" y="125.0679">Primer semestre</text></g><!--cluster I--><g id="cluster_I"><path d="M32.5,62.102 L122.5,62.102 A3.75,3.75 0 0 1 125,64.602 L132,87.1699 L386.5,87.1699 A2.5,2.5 0 0 1 389,89.6699 L389,738.102 A2.5,2.5 0 0 1 386.5,740.602 L32.5,740.602 A2.5,2.5 0 0 1 30,738.102 L30,64.602 A2.5,2.5 0 0 1 32.5,62.102 " fill="none" style="stroke:#000000;stroke-width:1.5;"/><line style="stroke:#000000;stroke-width:1.5;" x1="30" x2="132" y1="87.1699" y2="87.1699"/><text fill="#000000" font-family="sans-serif" font-size="14" font-weight="bold" lengthAdjust="spacing" textLength="89" x="34" y="79.0679">Primer curso</text></g><!--cluster s2--><g id="cluster_s2"><path d="M222.5,108.102 L352.5,108.102 A3.75,3.75 0 0 1 355,110.602 L362,133.1699 L362.5,133.1699 A2.5,2.5 0 0 1 365,135.6699 L365,714.102 A2.5,2.5 0 0 1 362.5,716.602 L222.5,716.602 A2.5,2.5 0 0 1 220,714.102 L220,110.602 A2.5,2.5 0 0 1 222.5,108.102 " fill="none" style="stroke:#000000;stroke-width:1.5;"/><line style="stroke:#000000;stroke-width:1.5;" x1="220" x2="362" y1="133.1699" y2="133.1699"/><text fill="#000000" font-family="sans-serif" font-size="14" font-weight="bold" lengthAdjust="spacing" textLength="129" x="224" y="125.0679">Segundo semestre</text></g><!--cluster s1--><g id="cluster_s1"><path d="M56.5,108.102 L172.5,108.102 A3.75,3.75 0 0 1 175,110.602 L182,133.1699 L193.5,133.1699 A2.5,2.5 0 0 1 196,135.6699 L196,714.102 A2.5,2.5 0 0 1 193.5,716.602 L56.5,716.602 A2.5,2.5 0 0 1 54,714.102 L54,110.602 A2.5,2.5 0 0 1 56.5,108.102 " fill="none" style="stroke:#000000;stroke-width:1.5;"/><line style="stroke:#000000;stroke-width:1.5;" x1="54" x2="182" y1="133.1699" y2="133.1699"/><text fill="#000000" font-family="sans-serif" font-size="14" font-weight="bold" lengthAdjust="spacing" textLength="115" x="58" y="125.0679">Primer semestre</text></g><!--class TFG--><g id="elem_TFG"><rect codeLine="6" fill="#DDA0DD" height="80.4799" id="TFG" rx="2.5" ry="2.5" style="stroke:#181818;stroke-width:0.5;" width="113" x="1374.5" y="136.602"/><ellipse cx="1389.5" cy="159.308" fill="#ADD1B2" rx="11" ry="11" style="stroke:#181818;stroke-width:1.0;"/><path d="M1392.4688,164.9486 Q1391.8906,165.2455 1391.25,165.3861 Q1390.6094,165.5424 1389.9063,165.5424 Q1387.4063,165.5424 1386.0781,163.9017 Q1384.7656,162.2455 1384.7656,159.1205 Q1384.7656,155.9955 1386.0781,154.3392 Q1387.4063,152.683 1389.9063,152.683 Q1390.6094,152.683 1391.25,152.8392 Q1391.9063,152.9955 1392.4688,153.2924 L1392.4688,156.0111 Q1391.8438,155.433 1391.25,155.1674 Q1390.6563,154.8861 1390.0313,154.8861 Q1388.6875,154.8861 1388,155.9642 Q1387.3125,157.0267 1387.3125,159.1205 Q1387.3125,161.2142 1388,162.2924 Q1388.6875,163.3549 1390.0313,163.3549 Q1390.6563,163.3549 1391.25,163.0892 Q1391.8438,162.808 1392.4688,162.2299 L1392.4688,164.9486 Z " fill="#000000"/><text fill="#000000" font-family="sans-serif" font-size="12" font-style="italic" lengthAdjust="spacing" textLength="85" x="1401.5" y="154.4301">&#171;ProyectoFinal&#187;</text><text fill="#000000" font-family="sans-serif" font-size="14" lengthAdjust="spacing" textLength="25" x="1431.5" y="172.912">TFG</text><line style="stroke:#181818;stroke-width:0.5;" x1="1375.5" x2="1486.5" y1="182.014" y2="182.014"/><ellipse cx="1385.5" cy="197.048" fill="none" rx="3" ry="3" style="stroke:#038048;stroke-width:1.0;"/><text fill="#000000" font-family="sans-serif" font-size="14" lengthAdjust="spacing" textLength="78" x="1394.5" y="200.9799">cr&#233;ditos: 12</text><line style="stroke:#181818;stroke-width:0.5;" x1="1375.5" x2="1486.5" y1="209.0819" y2="209.0819"/></g><!--class DSI--><g id="elem_DSI"><rect codeLine="9" fill="#FFFF99" height="61.412" id="DSI" rx="2.5" ry="2.5" style="stroke:#181818;stroke-width:0.5;" width="90" x="1386" y="276.602"/><ellipse cx="1401" cy="299.308" fill="#ADD1B2" rx="11" ry="11" style="stroke:#181818;stroke-width:1.0;"/><path d="M1403.9688,304.9486 Q1403.3906,305.2455 1402.75,305.3861 Q1402.1094,305.5424 1401.4063,305.5424 Q1398.9063,305.5424 1397.5781,303.9017 Q1396.2656,302.2455 1396.2656,299.1205 Q1396.2656,295.9955 1397.5781,294.3392 Q1398.9063,292.683 1401.4063,292.683 Q1402.1094,292.683 1402.75,292.8392 Q1403.4063,292.9955 1403.9688,293.2924 L1403.9688,296.0111 Q1403.3438,295.433 1402.75,295.1674 Q1402.1563,294.8861 1401.5313,294.8861 Q1400.1875,294.8861 1399.5,295.9642 Q1398.8125,297.0267 1398.8125,299.1205 Q1398.8125,301.2142 1399.5,302.2924 Q1400.1875,303.3549 1401.5313,303.3549 Q1402.1563,303.3549 1402.75,303.0892 Q1403.3438,302.808 1403.9688,302.2299 L1403.9688,304.9486 Z " fill="#000000"/><text fill="#000000" font-family="sans-serif" font-size="12" font-style="italic" lengthAdjust="spacing" textLength="62" x="1413" y="294.4301">&#171;Conexion&#187;</text><text fill="#000000" font-family="sans-serif" font-size="14" lengthAdjust="spacing" textLength="23" x="1432.5" y="312.912">DSI</text><line style="stroke:#181818;stroke-width:0.5;" x1="1387" x2="1475" y1="322.014" y2="322.014"/><line style="stroke:#181818;stroke-width:0.5;" x1="1387" x2="1475" y1="330.014" y2="330.014"/></g><!--class EEE--><g id="elem_EEE"><rect codeLine="10" fill="#FFFF99" height="61.412" id="EEE" rx="2.5" ry="2.5" style="stroke:#181818;stroke-width:0.5;" width="90" x="1386" y="397.602"/><ellipse cx="1401" cy="420.308" fill="#ADD1B2" rx="11" ry="11" style="stroke:#181818;stroke-width:1.0;"/><path d="M1403.9688,425.9486 Q1403.3906,426.2455 1402.75,426.3861 Q1402.1094,426.5424 1401.4063,426.5424 Q1398.9063,426.5424 1397.5781,424.9017 Q1396.2656,423.2455 1396.2656,420.1205 Q1396.2656,416.9955 1397.5781,415.3392 Q1398.9063,413.683 1401.4063,413.683 Q1402.1094,413.683 1402.75,413.8392 Q1403.4063,413.9955 1403.9688,414.2924 L1403.9688,417.0111 Q1403.3438,416.433 1402.75,416.1674 Q1402.1563,415.8861 1401.5313,415.8861 Q1400.1875,415.8861 1399.5,416.9642 Q1398.8125,418.0267 1398.8125,420.1205 Q1398.8125,422.2142 1399.5,423.2924 Q1400.1875,424.3549 1401.5313,424.3549 Q1402.1563,424.3549 1402.75,424.0892 Q1403.3438,423.808 1403.9688,423.2299 L1403.9688,425.9486 Z " fill="#000000"/><text fill="#000000" font-family="sans-serif" font-size="12" font-style="italic" lengthAdjust="spacing" textLength="62" x="1413" y="415.4301">&#171;Conexion&#187;</text><text fill="#000000" font-family="sans-serif" font-size="14" lengthAdjust="spacing" textLength="24" x="1432" y="433.912">EEE</text><line style="stroke:#181818;stroke-width:0.5;" x1="1387" x2="1475" y1="443.014" y2="443.014"/><line style="stroke:#181818;stroke-width:0.5;" x1="1387" x2="1475" y1="451.014" y2="451.014"/></g><!--class OPT4--><g id="elem_OPT4"><rect codeLine="11" fill="#FFFFFF" height="61.412" id="OPT4" rx="2.5" ry="2.5" style="stroke:#181818;stroke-width:0.5;" width="87" x="1387.5" y="518.602"/><ellipse cx="1402.5" cy="541.308" fill="#ADD1B2" rx="11" ry="11" style="stroke:#181818;stroke-width:1.0;"/><path d="M1405.4688,546.9486 Q1404.8906,547.2455 1404.25,547.3861 Q1403.6094,547.5424 1402.9063,547.5424 Q1400.4063,547.5424 1399.0781,545.9017 Q1397.7656,544.2455 1397.7656,541.1205 Q1397.7656,537.9955 1399.0781,536.3392 Q1400.4063,534.683 1402.9063,534.683 Q1403.6094,534.683 1404.25,534.8392 Q1404.9063,534.9955 1405.4688,535.2924 L1405.4688,538.0111 Q1404.8438,537.433 1404.25,537.1674 Q1403.6563,536.8861 1403.0313,536.8861 Q1401.6875,536.8861 1401,537.9642 Q1400.3125,539.0267 1400.3125,541.1205 Q1400.3125,543.2142 1401,544.2924 Q1401.6875,545.3549 1403.0313,545.3549 Q1403.6563,545.3549 1404.25,545.0892 Q1404.8438,544.808 1405.4688,544.2299 L1405.4688,546.9486 Z " fill="#000000"/><text fill="#000000" font-family="sans-serif" font-size="12" font-style="italic" lengthAdjust="spacing" textLength="59" x="1414.5" y="536.4301">&#171;Optativa&#187;</text><text fill="#000000" font-family="sans-serif" font-size="14" lengthAdjust="spacing" textLength="35" x="1426.5" y="554.912">OPT4</text><line style="stroke:#181818;stroke-width:0.5;" x1="1388.5" x2="1473.5" y1="564.014" y2="564.014"/><line style="stroke:#181818;stroke-width:0.5;" x1="1388.5" x2="1473.5" y1="572.014" y2="572.014"/></g><!--class SDPP--><g id="elem_SDPP"><rect codeLine="14" fill="#FFA500" height="61.412" id="SDPP" rx="2.5" ry="2.5" style="stroke:#181818;stroke-width:0.5;" width="96" x="1215" y="146.102"/><ellipse cx="1230" cy="168.808" fill="#ADD1B2" rx="11" ry="11" style="stroke:#181818;stroke-width:1.0;"/><path d="M1232.9688,174.4486 Q1232.3906,174.7455 1231.75,174.8861 Q1231.1094,175.0424 1230.4063,175.0424 Q1227.9063,175.0424 1226.5781,173.4017 Q1225.2656,171.7455 1225.2656,168.6205 Q1225.2656,165.4955 1226.5781,163.8392 Q1227.9063,162.183 1230.4063,162.183 Q1231.1094,162.183 1231.75,162.3392 Q1232.4063,162.4955 1232.9688,162.7924 L1232.9688,165.5111 Q1232.3438,164.933 1231.75,164.6674 Q1231.1563,164.3861 1230.5313,164.3861 Q1229.1875,164.3861 1228.5,165.4642 Q1227.8125,166.5267 1227.8125,168.6205 Q1227.8125,170.7142 1228.5,171.7924 Q1229.1875,172.8549 1230.5313,172.8549 Q1231.1563,172.8549 1231.75,172.5892 Q1232.3438,172.308 1232.9688,171.7299 L1232.9688,174.4486 Z " fill="#000000"/><text fill="#000000" font-family="sans-serif" font-size="12" font-style="italic" lengthAdjust="spacing" textLength="68" x="1242" y="163.9301">&#171;Desarrollo&#187;</text><text fill="#000000" font-family="sans-serif" font-size="14" lengthAdjust="spacing" textLength="34" x="1259" y="182.412">SDPP</text><line style="stroke:#181818;stroke-width:0.5;" x1="1216" x2="1310" y1="191.514" y2="191.514"/><line style="stroke:#181818;stroke-width:0.5;" x1="1216" x2="1310" y1="199.514" y2="199.514"/></g><!--class INTA--><g id="elem_INTA"><rect codeLine="15" fill="#FFA500" height="61.412" id="INTA" rx="2.5" ry="2.5" style="stroke:#181818;stroke-width:0.5;" width="96" x="1215" y="276.602"/><ellipse cx="1230" cy="299.308" fill="#ADD1B2" rx="11" ry="11" style="stroke:#181818;stroke-width:1.0;"/><path d="M1232.9688,304.9486 Q1232.3906,305.2455 1231.75,305.3861 Q1231.1094,305.5424 1230.4063,305.5424 Q1227.9063,305.5424 1226.5781,303.9017 Q1225.2656,302.2455 1225.2656,299.1205 Q1225.2656,295.9955 1226.5781,294.3392 Q1227.9063,292.683 1230.4063,292.683 Q1231.1094,292.683 1231.75,292.8392 Q1232.4063,292.9955 1232.9688,293.2924 L1232.9688,296.0111 Q1232.3438,295.433 1231.75,295.1674 Q1231.1563,294.8861 1230.5313,294.8861 Q1229.1875,294.8861 1228.5,295.9642 Q1227.8125,297.0267 1227.8125,299.1205 Q1227.8125,301.2142 1228.5,302.2924 Q1229.1875,303.3549 1230.5313,303.3549 Q1231.1563,303.3549 1231.75,303.0892 Q1232.3438,302.808 1232.9688,302.2299 L1232.9688,304.9486 Z " fill="#000000"/><text fill="#000000" font-family="sans-serif" font-size="12" font-style="italic" lengthAdjust="spacing" textLength="68" x="1242" y="294.4301">&#171;Desarrollo&#187;</text><text fill="#000000" font-family="sans-serif" font-size="14" lengthAdjust="spacing" textLength="33" x="1259.5" y="312.912">INTA</text><line style="stroke:#181818;stroke-width:0.5;" x1="1216" x2="1310" y1="322.014" y2="322.014"/><line style="stroke:#181818;stroke-width:0.5;" x1="1216" x2="1310" y1="330.014" y2="330.014"/></g><!--class PRY--><g id="elem_PRY"><rect codeLine="16" fill="#90EE90" height="61.412" id="PRY" rx="2.5" ry="2.5" style="stroke:#181818;stroke-width:0.5;" width="109" x="1208.5" y="397.602"/><ellipse cx="1223.5" cy="420.308" fill="#ADD1B2" rx="11" ry="11" style="stroke:#181818;stroke-width:1.0;"/><path d="M1226.4688,425.9486 Q1225.8906,426.2455 1225.25,426.3861 Q1224.6094,426.5424 1223.9063,426.5424 Q1221.4063,426.5424 1220.0781,424.9017 Q1218.7656,423.2455 1218.7656,420.1205 Q1218.7656,416.9955 1220.0781,415.3392 Q1221.4063,413.683 1223.9063,413.683 Q1224.6094,413.683 1225.25,413.8392 Q1225.9063,413.9955 1226.4688,414.2924 L1226.4688,417.0111 Q1225.8438,416.433 1225.25,416.1674 Q1224.6563,415.8861 1224.0313,415.8861 Q1222.6875,415.8861 1222,416.9642 Q1221.3125,418.0267 1221.3125,420.1205 Q1221.3125,422.2142 1222,423.2924 Q1222.6875,424.3549 1224.0313,424.3549 Q1224.6563,424.3549 1225.25,424.0892 Q1225.8438,423.808 1226.4688,423.2299 L1226.4688,425.9486 Z " fill="#000000"/><text fill="#000000" font-family="sans-serif" font-size="12" font-style="italic" lengthAdjust="spacing" textLength="81" x="1235.5" y="415.4301">&#171;Construccion&#187;</text><text fill="#000000" font-family="sans-serif" font-size="14" lengthAdjust="spacing" textLength="25" x="1263.5" y="433.912">PRY</text><line style="stroke:#181818;stroke-width:0.5;" x1="1209.5" x2="1316.5" y1="443.014" y2="443.014"/><line style="stroke:#181818;stroke-width:0.5;" x1="1209.5" x2="1316.5" y1="451.014" y2="451.014"/></g><!--class PRCT--><g id="elem_PRCT"><rect codeLine="17" fill="#FFFF99" height="61.412" id="PRCT" rx="2.5" ry="2.5" style="stroke:#181818;stroke-width:0.5;" width="90" x="1218" y="518.602"/><ellipse cx="1233" cy="541.308" fill="#ADD1B2" rx="11" ry="11" style="stroke:#181818;stroke-width:1.0;"/><path d="M1235.9688,546.9486 Q1235.3906,547.2455 1234.75,547.3861 Q1234.1094,547.5424 1233.4063,547.5424 Q1230.9063,547.5424 1229.5781,545.9017 Q1228.2656,544.2455 1228.2656,541.1205 Q1228.2656,537.9955 1229.5781,536.3392 Q1230.9063,534.683 1233.4063,534.683 Q1234.1094,534.683 1234.75,534.8392 Q1235.4063,534.9955 1235.9688,535.2924 L1235.9688,538.0111 Q1235.3438,537.433 1234.75,537.1674 Q1234.1563,536.8861 1233.5313,536.8861 Q1232.1875,536.8861 1231.5,537.9642 Q1230.8125,539.0267 1230.8125,541.1205 Q1230.8125,543.2142 1231.5,544.2924 Q1232.1875,545.3549 1233.5313,545.3549 Q1234.1563,545.3549 1234.75,545.0892 Q1235.3438,544.808 1235.9688,544.2299 L1235.9688,546.9486 Z " fill="#000000"/><text fill="#000000" font-family="sans-serif" font-size="12" font-style="italic" lengthAdjust="spacing" textLength="62" x="1245" y="536.4301">&#171;Conexion&#187;</text><text fill="#000000" font-family="sans-serif" font-size="14" lengthAdjust="spacing" textLength="34" x="1259" y="554.912">PRCT</text><line style="stroke:#181818;stroke-width:0.5;" x1="1219" x2="1307" y1="564.014" y2="564.014"/><line style="stroke:#181818;stroke-width:0.5;" x1="1219" x2="1307" y1="572.014" y2="572.014"/></g><!--class OPT3--><g id="elem_OPT3"><rect codeLine="18" fill="#FFFFFF" height="61.412" id="OPT3" rx="2.5" ry="2.5" style="stroke:#181818;stroke-width:0.5;" width="87" x="1219.5" y="639.602"/><ellipse cx="1234.5" cy="662.308" fill="#ADD1B2" rx="11" ry="11" style="stroke:#181818;stroke-width:1.0;"/><path d="M1237.4688,667.9486 Q1236.8906,668.2455 1236.25,668.3861 Q1235.6094,668.5424 1234.9063,668.5424 Q1232.4063,668.5424 1231.0781,666.9017 Q1229.7656,665.2455 1229.7656,662.1205 Q1229.7656,658.9955 1231.0781,657.3392 Q1232.4063,655.683 1234.9063,655.683 Q1235.6094,655.683 1236.25,655.8392 Q1236.9063,655.9955 1237.4688,656.2924 L1237.4688,659.0111 Q1236.8438,658.433 1236.25,658.1674 Q1235.6563,657.8861 1235.0313,657.8861 Q1233.6875,657.8861 1233,658.9642 Q1232.3125,660.0267 1232.3125,662.1205 Q1232.3125,664.2142 1233,665.2924 Q1233.6875,666.3549 1235.0313,666.3549 Q1235.6563,666.3549 1236.25,666.0892 Q1236.8438,665.808 1237.4688,665.2299 L1237.4688,667.9486 Z " fill="#000000"/><text fill="#000000" font-family="sans-serif" font-size="12" font-style="italic" lengthAdjust="spacing" textLength="59" x="1246.5" y="657.4301">&#171;Optativa&#187;</text><text fill="#000000" font-family="sans-serif" font-size="14" lengthAdjust="spacing" textLength="35" x="1258.5" y="675.912">OPT3</text><line style="stroke:#181818;stroke-width:0.5;" x1="1220.5" x2="1305.5" y1="685.014" y2="685.014"/><line style="stroke:#181818;stroke-width:0.5;" x1="1220.5" x2="1305.5" y1="693.014" y2="693.014"/></g><!--class PW2--><g id="elem_PW2"><rect codeLine="24" fill="#FFA500" height="61.412" id="PW2" rx="2.5" ry="2.5" style="stroke:#181818;stroke-width:0.5;" width="96" x="999" y="146.102"/><ellipse cx="1014" cy="168.808" fill="#ADD1B2" rx="11" ry="11" style="stroke:#181818;stroke-width:1.0;"/><path d="M1016.9688,174.4486 Q1016.3906,174.7455 1015.75,174.8861 Q1015.1094,175.0424 1014.4063,175.0424 Q1011.9063,175.0424 1010.5781,173.4017 Q1009.2656,171.7455 1009.2656,168.6205 Q1009.2656,165.4955 1010.5781,163.8392 Q1011.9063,162.183 1014.4063,162.183 Q1015.1094,162.183 1015.75,162.3392 Q1016.4063,162.4955 1016.9688,162.7924 L1016.9688,165.5111 Q1016.3438,164.933 1015.75,164.6674 Q1015.1563,164.3861 1014.5313,164.3861 Q1013.1875,164.3861 1012.5,165.4642 Q1011.8125,166.5267 1011.8125,168.6205 Q1011.8125,170.7142 1012.5,171.7924 Q1013.1875,172.8549 1014.5313,172.8549 Q1015.1563,172.8549 1015.75,172.5892 Q1016.3438,172.308 1016.9688,171.7299 L1016.9688,174.4486 Z " fill="#000000"/><text fill="#000000" font-family="sans-serif" font-size="12" font-style="italic" lengthAdjust="spacing" textLength="68" x="1026" y="163.9301">&#171;Desarrollo&#187;</text><text fill="#000000" font-family="sans-serif" font-size="14" lengthAdjust="spacing" textLength="29" x="1045.5" y="182.412">PW2</text><line style="stroke:#181818;stroke-width:0.5;" x1="1000" x2="1094" y1="191.514" y2="191.514"/><line style="stroke:#181818;stroke-width:0.5;" x1="1000" x2="1094" y1="199.514" y2="199.514"/></g><!--class SICR--><g id="elem_SICR"><rect codeLine="25" fill="#FFA500" height="61.412" id="SICR" rx="2.5" ry="2.5" style="stroke:#181818;stroke-width:0.5;" width="96" x="999" y="276.602"/><ellipse cx="1014" cy="299.308" fill="#ADD1B2" rx="11" ry="11" style="stroke:#181818;stroke-width:1.0;"/><path d="M1016.9688,304.9486 Q1016.3906,305.2455 1015.75,305.3861 Q1015.1094,305.5424 1014.4063,305.5424 Q1011.9063,305.5424 1010.5781,303.9017 Q1009.2656,302.2455 1009.2656,299.1205 Q1009.2656,295.9955 1010.5781,294.3392 Q1011.9063,292.683 1014.4063,292.683 Q1015.1094,292.683 1015.75,292.8392 Q1016.4063,292.9955 1016.9688,293.2924 L1016.9688,296.0111 Q1016.3438,295.433 1015.75,295.1674 Q1015.1563,294.8861 1014.5313,294.8861 Q1013.1875,294.8861 1012.5,295.9642 Q1011.8125,297.0267 1011.8125,299.1205 Q1011.8125,301.2142 1012.5,302.2924 Q1013.1875,303.3549 1014.5313,303.3549 Q1015.1563,303.3549 1015.75,303.0892 Q1016.3438,302.808 1016.9688,302.2299 L1016.9688,304.9486 Z " fill="#000000"/><text fill="#000000" font-family="sans-serif" font-size="12" font-style="italic" lengthAdjust="spacing" textLength="68" x="1026" y="294.4301">&#171;Desarrollo&#187;</text><text fill="#000000" font-family="sans-serif" font-size="14" lengthAdjust="spacing" textLength="31" x="1044.5" y="312.912">SICR</text><line style="stroke:#181818;stroke-width:0.5;" x1="1000" x2="1094" y1="322.014" y2="322.014"/><line style="stroke:#181818;stroke-width:0.5;" x1="1000" x2="1094" y1="330.014" y2="330.014"/></g><!--class ASW--><g id="elem_ASW"><rect codeLine="26" fill="#90EE90" height="61.412" id="ASW" rx="2.5" ry="2.5" style="stroke:#181818;stroke-width:0.5;" width="109" x="992.5" y="397.602"/><ellipse cx="1007.5" cy="420.308" fill="#ADD1B2" rx="11" ry="11" style="stroke:#181818;stroke-width:1.0;"/><path d="M1010.4688,425.9486 Q1009.8906,426.2455 1009.25,426.3861 Q1008.6094,426.5424 1007.9063,426.5424 Q1005.4063,426.5424 1004.0781,424.9017 Q1002.7656,423.2455 1002.7656,420.1205 Q1002.7656,416.9955 1004.0781,415.3392 Q1005.4063,413.683 1007.9063,413.683 Q1008.6094,413.683 1009.25,413.8392 Q1009.9063,413.9955 1010.4688,414.2924 L1010.4688,417.0111 Q1009.8438,416.433 1009.25,416.1674 Q1008.6563,415.8861 1008.0313,415.8861 Q1006.6875,415.8861 1006,416.9642 Q1005.3125,418.0267 1005.3125,420.1205 Q1005.3125,422.2142 1006,423.2924 Q1006.6875,424.3549 1008.0313,424.3549 Q1008.6563,424.3549 1009.25,424.0892 Q1009.8438,423.808 1010.4688,423.2299 L1010.4688,425.9486 Z " fill="#000000"/><text fill="#000000" font-family="sans-serif" font-size="12" font-style="italic" lengthAdjust="spacing" textLength="81" x="1019.5" y="415.4301">&#171;Construccion&#187;</text><text fill="#000000" font-family="sans-serif" font-size="14" lengthAdjust="spacing" textLength="30" x="1045" y="433.912">ASW</text><line style="stroke:#181818;stroke-width:0.5;" x1="993.5" x2="1100.5" y1="443.014" y2="443.014"/><line style="stroke:#181818;stroke-width:0.5;" x1="993.5" x2="1100.5" y1="451.014" y2="451.014"/></g><!--class ING4--><g id="elem_ING4"><rect codeLine="27" fill="#FFFF99" height="61.412" id="ING4" rx="2.5" ry="2.5" style="stroke:#181818;stroke-width:0.5;" width="90" x="1002" y="518.602"/><ellipse cx="1017" cy="541.308" fill="#ADD1B2" rx="11" ry="11" style="stroke:#181818;stroke-width:1.0;"/><path d="M1019.9688,546.9486 Q1019.3906,547.2455 1018.75,547.3861 Q1018.1094,547.5424 1017.4063,547.5424 Q1014.9063,547.5424 1013.5781,545.9017 Q1012.2656,544.2455 1012.2656,541.1205 Q1012.2656,537.9955 1013.5781,536.3392 Q1014.9063,534.683 1017.4063,534.683 Q1018.1094,534.683 1018.75,534.8392 Q1019.4063,534.9955 1019.9688,535.2924 L1019.9688,538.0111 Q1019.3438,537.433 1018.75,537.1674 Q1018.1563,536.8861 1017.5313,536.8861 Q1016.1875,536.8861 1015.5,537.9642 Q1014.8125,539.0267 1014.8125,541.1205 Q1014.8125,543.2142 1015.5,544.2924 Q1016.1875,545.3549 1017.5313,545.3549 Q1018.1563,545.3549 1018.75,545.0892 Q1019.3438,544.808 1019.9688,544.2299 L1019.9688,546.9486 Z " fill="#000000"/><text fill="#000000" font-family="sans-serif" font-size="12" font-style="italic" lengthAdjust="spacing" textLength="62" x="1029" y="536.4301">&#171;Conexion&#187;</text><text fill="#000000" font-family="sans-serif" font-size="14" lengthAdjust="spacing" textLength="34" x="1043" y="554.912">ING4</text><line style="stroke:#181818;stroke-width:0.5;" x1="1003" x2="1091" y1="564.014" y2="564.014"/><line style="stroke:#181818;stroke-width:0.5;" x1="1003" x2="1091" y1="572.014" y2="572.014"/></g><!--class OPT2--><g id="elem_OPT2"><rect codeLine="28" fill="#FFFFFF" height="61.412" id="OPT2" rx="2.5" ry="2.5" style="stroke:#181818;stroke-width:0.5;" width="87" x="1003.5" y="639.602"/><ellipse cx="1018.5" cy="662.308" fill="#ADD1B2" rx="11" ry="11" style="stroke:#181818;stroke-width:1.0;"/><path d="M1021.4688,667.9486 Q1020.8906,668.2455 1020.25,668.3861 Q1019.6094,668.5424 1018.9063,668.5424 Q1016.4063,668.5424 1015.0781,666.9017 Q1013.7656,665.2455 1013.7656,662.1205 Q1013.7656,658.9955 1015.0781,657.3392 Q1016.4063,655.683 1018.9063,655.683 Q1019.6094,655.683 1020.25,655.8392 Q1020.9063,655.9955 1021.4688,656.2924 L1021.4688,659.0111 Q1020.8438,658.433 1020.25,658.1674 Q1019.6563,657.8861 1019.0313,657.8861 Q1017.6875,657.8861 1017,658.9642 Q1016.3125,660.0267 1016.3125,662.1205 Q1016.3125,664.2142 1017,665.2924 Q1017.6875,666.3549 1019.0313,666.3549 Q1019.6563,666.3549 1020.25,666.0892 Q1020.8438,665.808 1021.4688,665.2299 L1021.4688,667.9486 Z " fill="#000000"/><text fill="#000000" font-family="sans-serif" font-size="12" font-style="italic" lengthAdjust="spacing" textLength="59" x="1030.5" y="657.4301">&#171;Optativa&#187;</text><text fill="#000000" font-family="sans-serif" font-size="14" lengthAdjust="spacing" textLength="35" x="1042.5" y="675.912">OPT2</text><line style="stroke:#181818;stroke-width:0.5;" x1="1004.5" x2="1089.5" y1="685.014" y2="685.014"/><line style="stroke:#181818;stroke-width:0.5;" x1="1004.5" x2="1089.5" y1="693.014" y2="693.014"/></g><!--class PW1--><g id="elem_PW1"><rect codeLine="31" fill="#FFA500" height="61.412" id="PW1" rx="2.5" ry="2.5" style="stroke:#181818;stroke-width:0.5;" width="96" x="832" y="146.102"/><ellipse cx="847" cy="168.808" fill="#ADD1B2" rx="11" ry="11" style="stroke:#181818;stroke-width:1.0;"/><path d="M849.9688,174.4486 Q849.3906,174.7455 848.75,174.8861 Q848.1094,175.0424 847.4063,175.0424 Q844.9063,175.0424 843.5781,173.4017 Q842.2656,171.7455 842.2656,168.6205 Q842.2656,165.4955 843.5781,163.8392 Q844.9063,162.183 847.4063,162.183 Q848.1094,162.183 848.75,162.3392 Q849.4063,162.4955 849.9688,162.7924 L849.9688,165.5111 Q849.3438,164.933 848.75,164.6674 Q848.1563,164.3861 847.5313,164.3861 Q846.1875,164.3861 845.5,165.4642 Q844.8125,166.5267 844.8125,168.6205 Q844.8125,170.7142 845.5,171.7924 Q846.1875,172.8549 847.5313,172.8549 Q848.1563,172.8549 848.75,172.5892 Q849.3438,172.308 849.9688,171.7299 L849.9688,174.4486 Z " fill="#000000"/><text fill="#000000" font-family="sans-serif" font-size="12" font-style="italic" lengthAdjust="spacing" textLength="68" x="859" y="163.9301">&#171;Desarrollo&#187;</text><text fill="#000000" font-family="sans-serif" font-size="14" lengthAdjust="spacing" textLength="29" x="878.5" y="182.412">PW1</text><line style="stroke:#181818;stroke-width:0.5;" x1="833" x2="927" y1="191.514" y2="191.514"/><line style="stroke:#181818;stroke-width:0.5;" x1="833" x2="927" y1="199.514" y2="199.514"/></g><!--class ETI--><g id="elem_ETI"><rect codeLine="32" fill="#FFFF99" height="61.412" id="ETI" rx="2.5" ry="2.5" style="stroke:#181818;stroke-width:0.5;" width="90" x="835" y="276.602"/><ellipse cx="850" cy="299.308" fill="#ADD1B2" rx="11" ry="11" style="stroke:#181818;stroke-width:1.0;"/><path d="M852.9688,304.9486 Q852.3906,305.2455 851.75,305.3861 Q851.1094,305.5424 850.4063,305.5424 Q847.9063,305.5424 846.5781,303.9017 Q845.2656,302.2455 845.2656,299.1205 Q845.2656,295.9955 846.5781,294.3392 Q847.9063,292.683 850.4063,292.683 Q851.1094,292.683 851.75,292.8392 Q852.4063,292.9955 852.9688,293.2924 L852.9688,296.0111 Q852.3438,295.433 851.75,295.1674 Q851.1563,294.8861 850.5313,294.8861 Q849.1875,294.8861 848.5,295.9642 Q847.8125,297.0267 847.8125,299.1205 Q847.8125,301.2142 848.5,302.2924 Q849.1875,303.3549 850.5313,303.3549 Q851.1563,303.3549 851.75,303.0892 Q852.3438,302.808 852.9688,302.2299 L852.9688,304.9486 Z " fill="#000000"/><text fill="#000000" font-family="sans-serif" font-size="12" font-style="italic" lengthAdjust="spacing" textLength="62" x="862" y="294.4301">&#171;Conexion&#187;</text><text fill="#000000" font-family="sans-serif" font-size="14" lengthAdjust="spacing" textLength="21" x="882.5" y="312.912">ETI</text><line style="stroke:#181818;stroke-width:0.5;" x1="836" x2="924" y1="322.014" y2="322.014"/><line style="stroke:#181818;stroke-width:0.5;" x1="836" x2="924" y1="330.014" y2="330.014"/></g><!--class ISW2--><g id="elem_ISW2"><rect codeLine="33" fill="#90EE90" height="61.412" id="ISW2" rx="2.5" ry="2.5" style="stroke:#181818;stroke-width:0.5;" width="109" x="825.5" y="397.602"/><ellipse cx="840.5" cy="420.308" fill="#ADD1B2" rx="11" ry="11" style="stroke:#181818;stroke-width:1.0;"/><path d="M843.4688,425.9486 Q842.8906,426.2455 842.25,426.3861 Q841.6094,426.5424 840.9063,426.5424 Q838.4063,426.5424 837.0781,424.9017 Q835.7656,423.2455 835.7656,420.1205 Q835.7656,416.9955 837.0781,415.3392 Q838.4063,413.683 840.9063,413.683 Q841.6094,413.683 842.25,413.8392 Q842.9063,413.9955 843.4688,414.2924 L843.4688,417.0111 Q842.8438,416.433 842.25,416.1674 Q841.6563,415.8861 841.0313,415.8861 Q839.6875,415.8861 839,416.9642 Q838.3125,418.0267 838.3125,420.1205 Q838.3125,422.2142 839,423.2924 Q839.6875,424.3549 841.0313,424.3549 Q841.6563,424.3549 842.25,424.0892 Q842.8438,423.808 843.4688,423.2299 L843.4688,425.9486 Z " fill="#000000"/><text fill="#000000" font-family="sans-serif" font-size="12" font-style="italic" lengthAdjust="spacing" textLength="81" x="852.5" y="415.4301">&#171;Construccion&#187;</text><text fill="#000000" font-family="sans-serif" font-size="14" lengthAdjust="spacing" textLength="34" x="876" y="433.912">ISW2</text><line style="stroke:#181818;stroke-width:0.5;" x1="826.5" x2="933.5" y1="443.014" y2="443.014"/><line style="stroke:#181818;stroke-width:0.5;" x1="826.5" x2="933.5" y1="451.014" y2="451.014"/></g><!--class ING3--><g id="elem_ING3"><rect codeLine="34" fill="#FFFF99" height="61.412" id="ING3" rx="2.5" ry="2.5" style="stroke:#181818;stroke-width:0.5;" width="90" x="835" y="518.602"/><ellipse cx="850" cy="541.308" fill="#ADD1B2" rx="11" ry="11" style="stroke:#181818;stroke-width:1.0;"/><path d="M852.9688,546.9486 Q852.3906,547.2455 851.75,547.3861 Q851.1094,547.5424 850.4063,547.5424 Q847.9063,547.5424 846.5781,545.9017 Q845.2656,544.2455 845.2656,541.1205 Q845.2656,537.9955 846.5781,536.3392 Q847.9063,534.683 850.4063,534.683 Q851.1094,534.683 851.75,534.8392 Q852.4063,534.9955 852.9688,535.2924 L852.9688,538.0111 Q852.3438,537.433 851.75,537.1674 Q851.1563,536.8861 850.5313,536.8861 Q849.1875,536.8861 848.5,537.9642 Q847.8125,539.0267 847.8125,541.1205 Q847.8125,543.2142 848.5,544.2924 Q849.1875,545.3549 850.5313,545.3549 Q851.1563,545.3549 851.75,545.0892 Q852.3438,544.808 852.9688,544.2299 L852.9688,546.9486 Z " fill="#000000"/><text fill="#000000" font-family="sans-serif" font-size="12" font-style="italic" lengthAdjust="spacing" textLength="62" x="862" y="536.4301">&#171;Conexion&#187;</text><text fill="#000000" font-family="sans-serif" font-size="14" lengthAdjust="spacing" textLength="34" x="876" y="554.912">ING3</text><line style="stroke:#181818;stroke-width:0.5;" x1="836" x2="924" y1="564.014" y2="564.014"/><line style="stroke:#181818;stroke-width:0.5;" x1="836" x2="924" y1="572.014" y2="572.014"/></g><!--class OPT1--><g id="elem_OPT1"><rect codeLine="35" fill="#FFFFFF" height="61.412" id="OPT1" rx="2.5" ry="2.5" style="stroke:#181818;stroke-width:0.5;" width="87" x="836.5" y="639.602"/><ellipse cx="851.5" cy="662.308" fill="#ADD1B2" rx="11" ry="11" style="stroke:#181818;stroke-width:1.0;"/><path d="M854.4688,667.9486 Q853.8906,668.2455 853.25,668.3861 Q852.6094,668.5424 851.9063,668.5424 Q849.4063,668.5424 848.0781,666.9017 Q846.7656,665.2455 846.7656,662.1205 Q846.7656,658.9955 848.0781,657.3392 Q849.4063,655.683 851.9063,655.683 Q852.6094,655.683 853.25,655.8392 Q853.9063,655.9955 854.4688,656.2924 L854.4688,659.0111 Q853.8438,658.433 853.25,658.1674 Q852.6563,657.8861 852.0313,657.8861 Q850.6875,657.8861 850,658.9642 Q849.3125,660.0267 849.3125,662.1205 Q849.3125,664.2142 850,665.2924 Q850.6875,666.3549 852.0313,666.3549 Q852.6563,666.3549 853.25,666.0892 Q853.8438,665.808 854.4688,665.2299 L854.4688,667.9486 Z " fill="#000000"/><text fill="#000000" font-family="sans-serif" font-size="12" font-style="italic" lengthAdjust="spacing" textLength="59" x="863.5" y="657.4301">&#171;Optativa&#187;</text><text fill="#000000" font-family="sans-serif" font-size="14" lengthAdjust="spacing" textLength="35" x="875.5" y="675.912">OPT1</text><line style="stroke:#181818;stroke-width:0.5;" x1="837.5" x2="922.5" y1="685.014" y2="685.014"/><line style="stroke:#181818;stroke-width:0.5;" x1="837.5" x2="922.5" y1="693.014" y2="693.014"/></g><!--class EDA2--><g id="elem_EDA2"><rect codeLine="41" fill="#FFA500" height="61.412" id="EDA2" rx="2.5" ry="2.5" style="stroke:#181818;stroke-width:0.5;" width="96" x="616" y="146.102"/><ellipse cx="631" cy="168.808" fill="#ADD1B2" rx="11" ry="11" style="stroke:#181818;stroke-width:1.0;"/><path d="M633.9688,174.4486 Q633.3906,174.7455 632.75,174.8861 Q632.1094,175.0424 631.4063,175.0424 Q628.9063,175.0424 627.5781,173.4017 Q626.2656,171.7455 626.2656,168.6205 Q626.2656,165.4955 627.5781,163.8392 Q628.9063,162.183 631.4063,162.183 Q632.1094,162.183 632.75,162.3392 Q633.4063,162.4955 633.9688,162.7924 L633.9688,165.5111 Q633.3438,164.933 632.75,164.6674 Q632.1563,164.3861 631.5313,164.3861 Q630.1875,164.3861 629.5,165.4642 Q628.8125,166.5267 628.8125,168.6205 Q628.8125,170.7142 629.5,171.7924 Q630.1875,172.8549 631.5313,172.8549 Q632.1563,172.8549 632.75,172.5892 Q633.3438,172.308 633.9688,171.7299 L633.9688,174.4486 Z " fill="#000000"/><text fill="#000000" font-family="sans-serif" font-size="12" font-style="italic" lengthAdjust="spacing" textLength="68" x="643" y="163.9301">&#171;Desarrollo&#187;</text><text fill="#000000" font-family="sans-serif" font-size="14" lengthAdjust="spacing" textLength="35" x="659.5" y="182.412">EDA2</text><line style="stroke:#181818;stroke-width:0.5;" x1="617" x2="711" y1="191.514" y2="191.514"/><line style="stroke:#181818;stroke-width:0.5;" x1="617" x2="711" y1="199.514" y2="199.514"/></g><!--class BD2--><g id="elem_BD2"><rect codeLine="42" fill="#FFA500" height="61.412" id="BD2" rx="2.5" ry="2.5" style="stroke:#181818;stroke-width:0.5;" width="96" x="616" y="276.602"/><ellipse cx="631" cy="299.308" fill="#ADD1B2" rx="11" ry="11" style="stroke:#181818;stroke-width:1.0;"/><path d="M633.9688,304.9486 Q633.3906,305.2455 632.75,305.3861 Q632.1094,305.5424 631.4063,305.5424 Q628.9063,305.5424 627.5781,303.9017 Q626.2656,302.2455 626.2656,299.1205 Q626.2656,295.9955 627.5781,294.3392 Q628.9063,292.683 631.4063,292.683 Q632.1094,292.683 632.75,292.8392 Q633.4063,292.9955 633.9688,293.2924 L633.9688,296.0111 Q633.3438,295.433 632.75,295.1674 Q632.1563,294.8861 631.5313,294.8861 Q630.1875,294.8861 629.5,295.9642 Q628.8125,297.0267 628.8125,299.1205 Q628.8125,301.2142 629.5,302.2924 Q630.1875,303.3549 631.5313,303.3549 Q632.1563,303.3549 632.75,303.0892 Q633.3438,302.808 633.9688,302.2299 L633.9688,304.9486 Z " fill="#000000"/><text fill="#000000" font-family="sans-serif" font-size="12" font-style="italic" lengthAdjust="spacing" textLength="68" x="643" y="294.4301">&#171;Desarrollo&#187;</text><text fill="#000000" font-family="sans-serif" font-size="14" lengthAdjust="spacing" textLength="27" x="663.5" y="312.912">BD2</text><line style="stroke:#181818;stroke-width:0.5;" x1="617" x2="711" y1="322.014" y2="322.014"/><line style="stroke:#181818;stroke-width:0.5;" x1="617" x2="711" y1="330.014" y2="330.014"/></g><!--class ISW1--><g id="elem_ISW1"><rect codeLine="43" fill="#90EE90" height="61.412" id="ISW1" rx="2.5" ry="2.5" style="stroke:#181818;stroke-width:0.5;" width="109" x="609.5" y="397.602"/><ellipse cx="624.5" cy="420.308" fill="#ADD1B2" rx="11" ry="11" style="stroke:#181818;stroke-width:1.0;"/><path d="M627.4688,425.9486 Q626.8906,426.2455 626.25,426.3861 Q625.6094,426.5424 624.9063,426.5424 Q622.4063,426.5424 621.0781,424.9017 Q619.7656,423.2455 619.7656,420.1205 Q619.7656,416.9955 621.0781,415.3392 Q622.4063,413.683 624.9063,413.683 Q625.6094,413.683 626.25,413.8392 Q626.9063,413.9955 627.4688,414.2924 L627.4688,417.0111 Q626.8438,416.433 626.25,416.1674 Q625.6563,415.8861 625.0313,415.8861 Q623.6875,415.8861 623,416.9642 Q622.3125,418.0267 622.3125,420.1205 Q622.3125,422.2142 623,423.2924 Q623.6875,424.3549 625.0313,424.3549 Q625.6563,424.3549 626.25,424.0892 Q626.8438,423.808 627.4688,423.2299 L627.4688,425.9486 Z " fill="#000000"/><text fill="#000000" font-family="sans-serif" font-size="12" font-style="italic" lengthAdjust="spacing" textLength="81" x="636.5" y="415.4301">&#171;Construccion&#187;</text><text fill="#000000" font-family="sans-serif" font-size="14" lengthAdjust="spacing" textLength="34" x="660" y="433.912">ISW1</text><line style="stroke:#181818;stroke-width:0.5;" x1="610.5" x2="717.5" y1="443.014" y2="443.014"/><line style="stroke:#181818;stroke-width:0.5;" x1="610.5" x2="717.5" y1="451.014" y2="451.014"/></g><!--class SOP--><g id="elem_SOP"><rect codeLine="44" fill="#FFFF99" height="61.412" id="SOP" rx="2.5" ry="2.5" style="stroke:#181818;stroke-width:0.5;" width="90" x="619" y="518.602"/><ellipse cx="634" cy="541.308" fill="#ADD1B2" rx="11" ry="11" style="stroke:#181818;stroke-width:1.0;"/><path d="M636.9688,546.9486 Q636.3906,547.2455 635.75,547.3861 Q635.1094,547.5424 634.4063,547.5424 Q631.9063,547.5424 630.5781,545.9017 Q629.2656,544.2455 629.2656,541.1205 Q629.2656,537.9955 630.5781,536.3392 Q631.9063,534.683 634.4063,534.683 Q635.1094,534.683 635.75,534.8392 Q636.4063,534.9955 636.9688,535.2924 L636.9688,538.0111 Q636.3438,537.433 635.75,537.1674 Q635.1563,536.8861 634.5313,536.8861 Q633.1875,536.8861 632.5,537.9642 Q631.8125,539.0267 631.8125,541.1205 Q631.8125,543.2142 632.5,544.2924 Q633.1875,545.3549 634.5313,545.3549 Q635.1563,545.3549 635.75,545.0892 Q636.3438,544.808 636.9688,544.2299 L636.9688,546.9486 Z " fill="#000000"/><text fill="#000000" font-family="sans-serif" font-size="12" font-style="italic" lengthAdjust="spacing" textLength="62" x="646" y="536.4301">&#171;Conexion&#187;</text><text fill="#000000" font-family="sans-serif" font-size="14" lengthAdjust="spacing" textLength="27" x="663.5" y="554.912">SOP</text><line style="stroke:#181818;stroke-width:0.5;" x1="620" x2="708" y1="564.014" y2="564.014"/><line style="stroke:#181818;stroke-width:0.5;" x1="620" x2="708" y1="572.014" y2="572.014"/></g><!--class LPR--><g id="elem_LPR"><rect codeLine="45" fill="#FFFF99" height="61.412" id="LPR" rx="2.5" ry="2.5" style="stroke:#181818;stroke-width:0.5;" width="90" x="619" y="639.602"/><ellipse cx="634" cy="662.308" fill="#ADD1B2" rx="11" ry="11" style="stroke:#181818;stroke-width:1.0;"/><path d="M636.9688,667.9486 Q636.3906,668.2455 635.75,668.3861 Q635.1094,668.5424 634.4063,668.5424 Q631.9063,668.5424 630.5781,666.9017 Q629.2656,665.2455 629.2656,662.1205 Q629.2656,658.9955 630.5781,657.3392 Q631.9063,655.683 634.4063,655.683 Q635.1094,655.683 635.75,655.8392 Q636.4063,655.9955 636.9688,656.2924 L636.9688,659.0111 Q636.3438,658.433 635.75,658.1674 Q635.1563,657.8861 634.5313,657.8861 Q633.1875,657.8861 632.5,658.9642 Q631.8125,660.0267 631.8125,662.1205 Q631.8125,664.2142 632.5,665.2924 Q633.1875,666.3549 634.5313,666.3549 Q635.1563,666.3549 635.75,666.0892 Q636.3438,665.808 636.9688,665.2299 L636.9688,667.9486 Z " fill="#000000"/><text fill="#000000" font-family="sans-serif" font-size="12" font-style="italic" lengthAdjust="spacing" textLength="62" x="646" y="657.4301">&#171;Conexion&#187;</text><text fill="#000000" font-family="sans-serif" font-size="14" lengthAdjust="spacing" textLength="24" x="665" y="675.912">LPR</text><line style="stroke:#181818;stroke-width:0.5;" x1="620" x2="708" y1="685.014" y2="685.014"/><line style="stroke:#181818;stroke-width:0.5;" x1="620" x2="708" y1="693.014" y2="693.014"/></g><!--class EDA1--><g id="elem_EDA1"><rect codeLine="48" fill="#FFA500" height="61.412" id="EDA1" rx="2.5" ry="2.5" style="stroke:#181818;stroke-width:0.5;" width="96" x="454" y="146.102"/><ellipse cx="469" cy="168.808" fill="#ADD1B2" rx="11" ry="11" style="stroke:#181818;stroke-width:1.0;"/><path d="M471.9688,174.4486 Q471.3906,174.7455 470.75,174.8861 Q470.1094,175.0424 469.4063,175.0424 Q466.9063,175.0424 465.5781,173.4017 Q464.2656,171.7455 464.2656,168.6205 Q464.2656,165.4955 465.5781,163.8392 Q466.9063,162.183 469.4063,162.183 Q470.1094,162.183 470.75,162.3392 Q471.4063,162.4955 471.9688,162.7924 L471.9688,165.5111 Q471.3438,164.933 470.75,164.6674 Q470.1563,164.3861 469.5313,164.3861 Q468.1875,164.3861 467.5,165.4642 Q466.8125,166.5267 466.8125,168.6205 Q466.8125,170.7142 467.5,171.7924 Q468.1875,172.8549 469.5313,172.8549 Q470.1563,172.8549 470.75,172.5892 Q471.3438,172.308 471.9688,171.7299 L471.9688,174.4486 Z " fill="#000000"/><text fill="#000000" font-family="sans-serif" font-size="12" font-style="italic" lengthAdjust="spacing" textLength="68" x="481" y="163.9301">&#171;Desarrollo&#187;</text><text fill="#000000" font-family="sans-serif" font-size="14" lengthAdjust="spacing" textLength="35" x="497.5" y="182.412">EDA1</text><line style="stroke:#181818;stroke-width:0.5;" x1="455" x2="549" y1="191.514" y2="191.514"/><line style="stroke:#181818;stroke-width:0.5;" x1="455" x2="549" y1="199.514" y2="199.514"/></g><!--class BD1--><g id="elem_BD1"><rect codeLine="49" fill="#FFA500" height="61.412" id="BD1" rx="2.5" ry="2.5" style="stroke:#181818;stroke-width:0.5;" width="96" x="454" y="276.602"/><ellipse cx="469" cy="299.308" fill="#ADD1B2" rx="11" ry="11" style="stroke:#181818;stroke-width:1.0;"/><path d="M471.9688,304.9486 Q471.3906,305.2455 470.75,305.3861 Q470.1094,305.5424 469.4063,305.5424 Q466.9063,305.5424 465.5781,303.9017 Q464.2656,302.2455 464.2656,299.1205 Q464.2656,295.9955 465.5781,294.3392 Q466.9063,292.683 469.4063,292.683 Q470.1094,292.683 470.75,292.8392 Q471.4063,292.9955 471.9688,293.2924 L471.9688,296.0111 Q471.3438,295.433 470.75,295.1674 Q470.1563,294.8861 469.5313,294.8861 Q468.1875,294.8861 467.5,295.9642 Q466.8125,297.0267 466.8125,299.1205 Q466.8125,301.2142 467.5,302.2924 Q468.1875,303.3549 469.5313,303.3549 Q470.1563,303.3549 470.75,303.0892 Q471.3438,302.808 471.9688,302.2299 L471.9688,304.9486 Z " fill="#000000"/><text fill="#000000" font-family="sans-serif" font-size="12" font-style="italic" lengthAdjust="spacing" textLength="68" x="481" y="294.4301">&#171;Desarrollo&#187;</text><text fill="#000000" font-family="sans-serif" font-size="14" lengthAdjust="spacing" textLength="27" x="501.5" y="312.912">BD1</text><line style="stroke:#181818;stroke-width:0.5;" x1="455" x2="549" y1="322.014" y2="322.014"/><line style="stroke:#181818;stroke-width:0.5;" x1="455" x2="549" y1="330.014" y2="330.014"/></g><!--class MNUM--><g id="elem_MNUM"><rect codeLine="50" fill="#DDA0DD" height="61.412" id="MNUM" rx="2.5" ry="2.5" style="stroke:#181818;stroke-width:0.5;" width="95" x="454.5" y="397.602"/><ellipse cx="469.5" cy="420.308" fill="#ADD1B2" rx="11" ry="11" style="stroke:#181818;stroke-width:1.0;"/><path d="M472.4688,425.9486 Q471.8906,426.2455 471.25,426.3861 Q470.6094,426.5424 469.9063,426.5424 Q467.4063,426.5424 466.0781,424.9017 Q464.7656,423.2455 464.7656,420.1205 Q464.7656,416.9955 466.0781,415.3392 Q467.4063,413.683 469.9063,413.683 Q470.6094,413.683 471.25,413.8392 Q471.9063,413.9955 472.4688,414.2924 L472.4688,417.0111 Q471.8438,416.433 471.25,416.1674 Q470.6563,415.8861 470.0313,415.8861 Q468.6875,415.8861 468,416.9642 Q467.3125,418.0267 467.3125,420.1205 Q467.3125,422.2142 468,423.2924 Q468.6875,424.3549 470.0313,424.3549 Q470.6563,424.3549 471.25,424.0892 Q471.8438,423.808 472.4688,423.2299 L472.4688,425.9486 Z " fill="#000000"/><text fill="#000000" font-family="sans-serif" font-size="12" font-style="italic" lengthAdjust="spacing" textLength="67" x="481.5" y="415.4301">&#171;Ingenieria&#187;</text><text fill="#000000" font-family="sans-serif" font-size="14" lengthAdjust="spacing" textLength="47" x="491.5" y="433.912">MNUM</text><line style="stroke:#181818;stroke-width:0.5;" x1="455.5" x2="548.5" y1="443.014" y2="443.014"/><line style="stroke:#181818;stroke-width:0.5;" x1="455.5" x2="548.5" y1="451.014" y2="451.014"/></g><!--class RED--><g id="elem_RED"><rect codeLine="51" fill="#DDA0DD" height="61.412" id="RED" rx="2.5" ry="2.5" style="stroke:#181818;stroke-width:0.5;" width="95" x="454.5" y="518.602"/><ellipse cx="469.5" cy="541.308" fill="#ADD1B2" rx="11" ry="11" style="stroke:#181818;stroke-width:1.0;"/><path d="M472.4688,546.9486 Q471.8906,547.2455 471.25,547.3861 Q470.6094,547.5424 469.9063,547.5424 Q467.4063,547.5424 466.0781,545.9017 Q464.7656,544.2455 464.7656,541.1205 Q464.7656,537.9955 466.0781,536.3392 Q467.4063,534.683 469.9063,534.683 Q470.6094,534.683 471.25,534.8392 Q471.9063,534.9955 472.4688,535.2924 L472.4688,538.0111 Q471.8438,537.433 471.25,537.1674 Q470.6563,536.8861 470.0313,536.8861 Q468.6875,536.8861 468,537.9642 Q467.3125,539.0267 467.3125,541.1205 Q467.3125,543.2142 468,544.2924 Q468.6875,545.3549 470.0313,545.3549 Q470.6563,545.3549 471.25,545.0892 Q471.8438,544.808 472.4688,544.2299 L472.4688,546.9486 Z " fill="#000000"/><text fill="#000000" font-family="sans-serif" font-size="12" font-style="italic" lengthAdjust="spacing" textLength="67" x="481.5" y="536.4301">&#171;Ingenieria&#187;</text><text fill="#000000" font-family="sans-serif" font-size="14" lengthAdjust="spacing" textLength="27" x="501.5" y="554.912">RED</text><line style="stroke:#181818;stroke-width:0.5;" x1="455.5" x2="548.5" y1="564.014" y2="564.014"/><line style="stroke:#181818;stroke-width:0.5;" x1="455.5" x2="548.5" y1="572.014" y2="572.014"/></g><!--class EST--><g id="elem_EST"><rect codeLine="52" fill="#DDA0DD" height="61.412" id="EST" rx="2.5" ry="2.5" style="stroke:#181818;stroke-width:0.5;" width="95" x="454.5" y="639.602"/><ellipse cx="469.5" cy="662.308" fill="#ADD1B2" rx="11" ry="11" style="stroke:#181818;stroke-width:1.0;"/><path d="M472.4688,667.9486 Q471.8906,668.2455 471.25,668.3861 Q470.6094,668.5424 469.9063,668.5424 Q467.4063,668.5424 466.0781,666.9017 Q464.7656,665.2455 464.7656,662.1205 Q464.7656,658.9955 466.0781,657.3392 Q467.4063,655.683 469.9063,655.683 Q470.6094,655.683 471.25,655.8392 Q471.9063,655.9955 472.4688,656.2924 L472.4688,659.0111 Q471.8438,658.433 471.25,658.1674 Q470.6563,657.8861 470.0313,657.8861 Q468.6875,657.8861 468,658.9642 Q467.3125,660.0267 467.3125,662.1205 Q467.3125,664.2142 468,665.2924 Q468.6875,666.3549 470.0313,666.3549 Q470.6563,666.3549 471.25,666.0892 Q471.8438,665.808 472.4688,665.2299 L472.4688,667.9486 Z " fill="#000000"/><text fill="#000000" font-family="sans-serif" font-size="12" font-style="italic" lengthAdjust="spacing" textLength="67" x="481.5" y="657.4301">&#171;Ingenieria&#187;</text><text fill="#000000" font-family="sans-serif" font-size="14" lengthAdjust="spacing" textLength="24" x="503" y="675.912">EST</text><line style="stroke:#181818;stroke-width:0.5;" x1="455.5" x2="548.5" y1="685.014" y2="685.014"/><line style="stroke:#181818;stroke-width:0.5;" x1="455.5" x2="548.5" y1="693.014" y2="693.014"/></g><!--class PRG2--><g id="elem_PRG2"><rect codeLine="58" fill="#FFA500" height="61.412" id="PRG2" rx="2.5" ry="2.5" style="stroke:#181818;stroke-width:0.5;" width="96" x="244" y="146.102"/><ellipse cx="259" cy="168.808" fill="#ADD1B2" rx="11" ry="11" style="stroke:#181818;stroke-width:1.0;"/><path d="M261.9688,174.4486 Q261.3906,174.7455 260.75,174.8861 Q260.1094,175.0424 259.4063,175.0424 Q256.9063,175.0424 255.5781,173.4017 Q254.2656,171.7455 254.2656,168.6205 Q254.2656,165.4955 255.5781,163.8392 Q256.9063,162.183 259.4063,162.183 Q260.1094,162.183 260.75,162.3392 Q261.4063,162.4955 261.9688,162.7924 L261.9688,165.5111 Q261.3438,164.933 260.75,164.6674 Q260.1563,164.3861 259.5313,164.3861 Q258.1875,164.3861 257.5,165.4642 Q256.8125,166.5267 256.8125,168.6205 Q256.8125,170.7142 257.5,171.7924 Q258.1875,172.8549 259.5313,172.8549 Q260.1563,172.8549 260.75,172.5892 Q261.3438,172.308 261.9688,171.7299 L261.9688,174.4486 Z " fill="#000000"/><text fill="#000000" font-family="sans-serif" font-size="12" font-style="italic" lengthAdjust="spacing" textLength="68" x="271" y="163.9301">&#171;Desarrollo&#187;</text><text fill="#000000" font-family="sans-serif" font-size="14" lengthAdjust="spacing" textLength="35" x="287.5" y="182.412">PRG2</text><line style="stroke:#181818;stroke-width:0.5;" x1="245" x2="339" y1="191.514" y2="191.514"/><line style="stroke:#181818;stroke-width:0.5;" x1="245" x2="339" y1="199.514" y2="199.514"/></g><!--class TIC--><g id="elem_TIC"><rect codeLine="59" fill="#FFFF99" height="61.412" id="TIC" rx="2.5" ry="2.5" style="stroke:#181818;stroke-width:0.5;" width="90" x="247" y="276.602"/><ellipse cx="262" cy="299.308" fill="#ADD1B2" rx="11" ry="11" style="stroke:#181818;stroke-width:1.0;"/><path d="M264.9688,304.9486 Q264.3906,305.2455 263.75,305.3861 Q263.1094,305.5424 262.4063,305.5424 Q259.9063,305.5424 258.5781,303.9017 Q257.2656,302.2455 257.2656,299.1205 Q257.2656,295.9955 258.5781,294.3392 Q259.9063,292.683 262.4063,292.683 Q263.1094,292.683 263.75,292.8392 Q264.4063,292.9955 264.9688,293.2924 L264.9688,296.0111 Q264.3438,295.433 263.75,295.1674 Q263.1563,294.8861 262.5313,294.8861 Q261.1875,294.8861 260.5,295.9642 Q259.8125,297.0267 259.8125,299.1205 Q259.8125,301.2142 260.5,302.2924 Q261.1875,303.3549 262.5313,303.3549 Q263.1563,303.3549 263.75,303.0892 Q264.3438,302.808 264.9688,302.2299 L264.9688,304.9486 Z " fill="#000000"/><text fill="#000000" font-family="sans-serif" font-size="12" font-style="italic" lengthAdjust="spacing" textLength="62" x="274" y="294.4301">&#171;Conexion&#187;</text><text fill="#000000" font-family="sans-serif" font-size="14" lengthAdjust="spacing" textLength="22" x="294" y="312.912">TIC</text><line style="stroke:#181818;stroke-width:0.5;" x1="248" x2="336" y1="322.014" y2="322.014"/><line style="stroke:#181818;stroke-width:0.5;" x1="248" x2="336" y1="330.014" y2="330.014"/></g><!--class LOG--><g id="elem_LOG"><rect codeLine="60" fill="#DDA0DD" height="61.412" id="LOG" rx="2.5" ry="2.5" style="stroke:#181818;stroke-width:0.5;" width="95" x="244.5" y="397.602"/><ellipse cx="259.5" cy="420.308" fill="#ADD1B2" rx="11" ry="11" style="stroke:#181818;stroke-width:1.0;"/><path d="M262.4688,425.9486 Q261.8906,426.2455 261.25,426.3861 Q260.6094,426.5424 259.9063,426.5424 Q257.4063,426.5424 256.0781,424.9017 Q254.7656,423.2455 254.7656,420.1205 Q254.7656,416.9955 256.0781,415.3392 Q257.4063,413.683 259.9063,413.683 Q260.6094,413.683 261.25,413.8392 Q261.9063,413.9955 262.4688,414.2924 L262.4688,417.0111 Q261.8438,416.433 261.25,416.1674 Q260.6563,415.8861 260.0313,415.8861 Q258.6875,415.8861 258,416.9642 Q257.3125,418.0267 257.3125,420.1205 Q257.3125,422.2142 258,423.2924 Q258.6875,424.3549 260.0313,424.3549 Q260.6563,424.3549 261.25,424.0892 Q261.8438,423.808 262.4688,423.2299 L262.4688,425.9486 Z " fill="#000000"/><text fill="#000000" font-family="sans-serif" font-size="12" font-style="italic" lengthAdjust="spacing" textLength="67" x="271.5" y="415.4301">&#171;Ingenieria&#187;</text><text fill="#000000" font-family="sans-serif" font-size="14" lengthAdjust="spacing" textLength="28" x="291" y="433.912">LOG</text><line style="stroke:#181818;stroke-width:0.5;" x1="245.5" x2="338.5" y1="443.014" y2="443.014"/><line style="stroke:#181818;stroke-width:0.5;" x1="245.5" x2="338.5" y1="451.014" y2="451.014"/></g><!--class MAT2--><g id="elem_MAT2"><rect codeLine="61" fill="#DDA0DD" height="61.412" id="MAT2" rx="2.5" ry="2.5" style="stroke:#181818;stroke-width:0.5;" width="95" x="244.5" y="518.602"/><ellipse cx="259.5" cy="541.308" fill="#ADD1B2" rx="11" ry="11" style="stroke:#181818;stroke-width:1.0;"/><path d="M262.4688,546.9486 Q261.8906,547.2455 261.25,547.3861 Q260.6094,547.5424 259.9063,547.5424 Q257.4063,547.5424 256.0781,545.9017 Q254.7656,544.2455 254.7656,541.1205 Q254.7656,537.9955 256.0781,536.3392 Q257.4063,534.683 259.9063,534.683 Q260.6094,534.683 261.25,534.8392 Q261.9063,534.9955 262.4688,535.2924 L262.4688,538.0111 Q261.8438,537.433 261.25,537.1674 Q260.6563,536.8861 260.0313,536.8861 Q258.6875,536.8861 258,537.9642 Q257.3125,539.0267 257.3125,541.1205 Q257.3125,543.2142 258,544.2924 Q258.6875,545.3549 260.0313,545.3549 Q260.6563,545.3549 261.25,545.0892 Q261.8438,544.808 262.4688,544.2299 L262.4688,546.9486 Z " fill="#000000"/><text fill="#000000" font-family="sans-serif" font-size="12" font-style="italic" lengthAdjust="spacing" textLength="67" x="271.5" y="536.4301">&#171;Ingenieria&#187;</text><text fill="#000000" font-family="sans-serif" font-size="14" lengthAdjust="spacing" textLength="38" x="286" y="554.912">MAT2</text><line style="stroke:#181818;stroke-width:0.5;" x1="245.5" x2="338.5" y1="564.014" y2="564.014"/><line style="stroke:#181818;stroke-width:0.5;" x1="245.5" x2="338.5" y1="572.014" y2="572.014"/></g><!--class MDISC--><g id="elem_MDISC"><rect codeLine="62" fill="#DDA0DD" height="61.412" id="MDISC" rx="2.5" ry="2.5" style="stroke:#181818;stroke-width:0.5;" width="95" x="244.5" y="639.602"/><ellipse cx="259.5" cy="662.308" fill="#ADD1B2" rx="11" ry="11" style="stroke:#181818;stroke-width:1.0;"/><path d="M262.4688,667.9486 Q261.8906,668.2455 261.25,668.3861 Q260.6094,668.5424 259.9063,668.5424 Q257.4063,668.5424 256.0781,666.9017 Q254.7656,665.2455 254.7656,662.1205 Q254.7656,658.9955 256.0781,657.3392 Q257.4063,655.683 259.9063,655.683 Q260.6094,655.683 261.25,655.8392 Q261.9063,655.9955 262.4688,656.2924 L262.4688,659.0111 Q261.8438,658.433 261.25,658.1674 Q260.6563,657.8861 260.0313,657.8861 Q258.6875,657.8861 258,658.9642 Q257.3125,660.0267 257.3125,662.1205 Q257.3125,664.2142 258,665.2924 Q258.6875,666.3549 260.0313,666.3549 Q260.6563,666.3549 261.25,666.0892 Q261.8438,665.808 262.4688,665.2299 L262.4688,667.9486 Z " fill="#000000"/><text fill="#000000" font-family="sans-serif" font-size="12" font-style="italic" lengthAdjust="spacing" textLength="67" x="271.5" y="657.4301">&#171;Ingenieria&#187;</text><text fill="#000000" font-family="sans-serif" font-size="14" lengthAdjust="spacing" textLength="45" x="282.5" y="675.912">MDISC</text><line style="stroke:#181818;stroke-width:0.5;" x1="245.5" x2="338.5" y1="685.014" y2="685.014"/><line style="stroke:#181818;stroke-width:0.5;" x1="245.5" x2="338.5" y1="693.014" y2="693.014"/></g><!--class PRG1--><g id="elem_PRG1"><rect codeLine="65" fill="#FFA500" height="61.412" id="PRG1" rx="2.5" ry="2.5" style="stroke:#181818;stroke-width:0.5;" width="96" x="77" y="146.102"/><ellipse cx="92" cy="168.808" fill="#ADD1B2" rx="11" ry="11" style="stroke:#181818;stroke-width:1.0;"/><path d="M94.9688,174.4486 Q94.3906,174.7455 93.75,174.8861 Q93.1094,175.0424 92.4063,175.0424 Q89.9063,175.0424 88.5781,173.4017 Q87.2656,171.7455 87.2656,168.6205 Q87.2656,165.4955 88.5781,163.8392 Q89.9063,162.183 92.4063,162.183 Q93.1094,162.183 93.75,162.3392 Q94.4063,162.4955 94.9688,162.7924 L94.9688,165.5111 Q94.3438,164.933 93.75,164.6674 Q93.1563,164.3861 92.5313,164.3861 Q91.1875,164.3861 90.5,165.4642 Q89.8125,166.5267 89.8125,168.6205 Q89.8125,170.7142 90.5,171.7924 Q91.1875,172.8549 92.5313,172.8549 Q93.1563,172.8549 93.75,172.5892 Q94.3438,172.308 94.9688,171.7299 L94.9688,174.4486 Z " fill="#000000"/><text fill="#000000" font-family="sans-serif" font-size="12" font-style="italic" lengthAdjust="spacing" textLength="68" x="104" y="163.9301">&#171;Desarrollo&#187;</text><text fill="#000000" font-family="sans-serif" font-size="14" lengthAdjust="spacing" textLength="35" x="120.5" y="182.412">PRG1</text><line style="stroke:#181818;stroke-width:0.5;" x1="78" x2="172" y1="191.514" y2="191.514"/><line style="stroke:#181818;stroke-width:0.5;" x1="78" x2="172" y1="199.514" y2="199.514"/></g><!--class FPySw--><g id="elem_FPySw"><rect codeLine="66" fill="#90EE90" height="61.412" id="FPySw" rx="2.5" ry="2.5" style="stroke:#181818;stroke-width:0.5;" width="109" x="70.5" y="276.602"/><ellipse cx="85.5" cy="299.308" fill="#ADD1B2" rx="11" ry="11" style="stroke:#181818;stroke-width:1.0;"/><path d="M88.4688,304.9486 Q87.8906,305.2455 87.25,305.3861 Q86.6094,305.5424 85.9063,305.5424 Q83.4063,305.5424 82.0781,303.9017 Q80.7656,302.2455 80.7656,299.1205 Q80.7656,295.9955 82.0781,294.3392 Q83.4063,292.683 85.9063,292.683 Q86.6094,292.683 87.25,292.8392 Q87.9063,292.9955 88.4688,293.2924 L88.4688,296.0111 Q87.8438,295.433 87.25,295.1674 Q86.6563,294.8861 86.0313,294.8861 Q84.6875,294.8861 84,295.9642 Q83.3125,297.0267 83.3125,299.1205 Q83.3125,301.2142 84,302.2924 Q84.6875,303.3549 86.0313,303.3549 Q86.6563,303.3549 87.25,303.0892 Q87.8438,302.808 88.4688,302.2299 L88.4688,304.9486 Z " fill="#000000"/><text fill="#000000" font-family="sans-serif" font-size="12" font-style="italic" lengthAdjust="spacing" textLength="81" x="97.5" y="294.4301">&#171;Construccion&#187;</text><text fill="#000000" font-family="sans-serif" font-size="14" lengthAdjust="spacing" textLength="41" x="117.5" y="312.912">FPySw</text><line style="stroke:#181818;stroke-width:0.5;" x1="71.5" x2="178.5" y1="322.014" y2="322.014"/><line style="stroke:#181818;stroke-width:0.5;" x1="71.5" x2="178.5" y1="330.014" y2="330.014"/></g><!--class TEO--><g id="elem_TEO"><rect codeLine="67" fill="#FFFF99" height="61.412" id="TEO" rx="2.5" ry="2.5" style="stroke:#181818;stroke-width:0.5;" width="90" x="80" y="397.602"/><ellipse cx="95" cy="420.308" fill="#ADD1B2" rx="11" ry="11" style="stroke:#181818;stroke-width:1.0;"/><path d="M97.9688,425.9486 Q97.3906,426.2455 96.75,426.3861 Q96.1094,426.5424 95.4063,426.5424 Q92.9063,426.5424 91.5781,424.9017 Q90.2656,423.2455 90.2656,420.1205 Q90.2656,416.9955 91.5781,415.3392 Q92.9063,413.683 95.4063,413.683 Q96.1094,413.683 96.75,413.8392 Q97.4063,413.9955 97.9688,414.2924 L97.9688,417.0111 Q97.3438,416.433 96.75,416.1674 Q96.1563,415.8861 95.5313,415.8861 Q94.1875,415.8861 93.5,416.9642 Q92.8125,418.0267 92.8125,420.1205 Q92.8125,422.2142 93.5,423.2924 Q94.1875,424.3549 95.5313,424.3549 Q96.1563,424.3549 96.75,424.0892 Q97.3438,423.808 97.9688,423.2299 L97.9688,425.9486 Z " fill="#000000"/><text fill="#000000" font-family="sans-serif" font-size="12" font-style="italic" lengthAdjust="spacing" textLength="62" x="107" y="415.4301">&#171;Conexion&#187;</text><text fill="#000000" font-family="sans-serif" font-size="14" lengthAdjust="spacing" textLength="27" x="124.5" y="433.912">TEO</text><line style="stroke:#181818;stroke-width:0.5;" x1="81" x2="169" y1="443.014" y2="443.014"/><line style="stroke:#181818;stroke-width:0.5;" x1="81" x2="169" y1="451.014" y2="451.014"/></g><!--class MAT1--><g id="elem_MAT1"><rect codeLine="68" fill="#DDA0DD" height="61.412" id="MAT1" rx="2.5" ry="2.5" style="stroke:#181818;stroke-width:0.5;" width="95" x="77.5" y="518.602"/><ellipse cx="92.5" cy="541.308" fill="#ADD1B2" rx="11" ry="11" style="stroke:#181818;stroke-width:1.0;"/><path d="M95.4688,546.9486 Q94.8906,547.2455 94.25,547.3861 Q93.6094,547.5424 92.9063,547.5424 Q90.4063,547.5424 89.0781,545.9017 Q87.7656,544.2455 87.7656,541.1205 Q87.7656,537.9955 89.0781,536.3392 Q90.4063,534.683 92.9063,534.683 Q93.6094,534.683 94.25,534.8392 Q94.9063,534.9955 95.4688,535.2924 L95.4688,538.0111 Q94.8438,537.433 94.25,537.1674 Q93.6563,536.8861 93.0313,536.8861 Q91.6875,536.8861 91,537.9642 Q90.3125,539.0267 90.3125,541.1205 Q90.3125,543.2142 91,544.2924 Q91.6875,545.3549 93.0313,545.3549 Q93.6563,545.3549 94.25,545.0892 Q94.8438,544.808 95.4688,544.2299 L95.4688,546.9486 Z " fill="#000000"/><text fill="#000000" font-family="sans-serif" font-size="12" font-style="italic" lengthAdjust="spacing" textLength="67" x="104.5" y="536.4301">&#171;Ingenieria&#187;</text><text fill="#000000" font-family="sans-serif" font-size="14" lengthAdjust="spacing" textLength="38" x="119" y="554.912">MAT1</text><line style="stroke:#181818;stroke-width:0.5;" x1="78.5" x2="171.5" y1="564.014" y2="564.014"/><line style="stroke:#181818;stroke-width:0.5;" x1="78.5" x2="171.5" y1="572.014" y2="572.014"/></g><!--class FIS--><g id="elem_FIS"><rect codeLine="69" fill="#DDA0DD" height="61.412" id="FIS" rx="2.5" ry="2.5" style="stroke:#181818;stroke-width:0.5;" width="95" x="77.5" y="639.602"/><ellipse cx="92.5" cy="662.308" fill="#ADD1B2" rx="11" ry="11" style="stroke:#181818;stroke-width:1.0;"/><path d="M95.4688,667.9486 Q94.8906,668.2455 94.25,668.3861 Q93.6094,668.5424 92.9063,668.5424 Q90.4063,668.5424 89.0781,666.9017 Q87.7656,665.2455 87.7656,662.1205 Q87.7656,658.9955 89.0781,657.3392 Q90.4063,655.683 92.9063,655.683 Q93.6094,655.683 94.25,655.8392 Q94.9063,655.9955 95.4688,656.2924 L95.4688,659.0111 Q94.8438,658.433 94.25,658.1674 Q93.6563,657.8861 93.0313,657.8861 Q91.6875,657.8861 91,658.9642 Q90.3125,660.0267 90.3125,662.1205 Q90.3125,664.2142 91,665.2924 Q91.6875,666.3549 93.0313,666.3549 Q93.6563,666.3549 94.25,666.0892 Q94.8438,665.808 95.4688,665.2299 L95.4688,667.9486 Z " fill="#000000"/><text fill="#000000" font-family="sans-serif" font-size="12" font-style="italic" lengthAdjust="spacing" textLength="67" x="104.5" y="657.4301">&#171;Ingenieria&#187;</text><text fill="#000000" font-family="sans-serif" font-size="14" lengthAdjust="spacing" textLength="20" x="128" y="675.912">FIS</text><line style="stroke:#181818;stroke-width:0.5;" x1="78.5" x2="171.5" y1="685.014" y2="685.014"/><line style="stroke:#181818;stroke-width:0.5;" x1="78.5" x2="171.5" y1="693.014" y2="693.014"/></g><!--link PRG1 to FPySw--><!--link FPySw to TEO--><!--link TEO to MAT1--><!--link MAT1 to FIS--><!--link PRG2 to TIC--><!--link TIC to LOG--><!--link LOG to MAT2--><!--link MAT2 to MDISC--><!--link EDA1 to BD1--><!--link BD1 to MNUM--><!--link MNUM to RED--><!--link RED to EST--><!--link EDA2 to BD2--><!--link BD2 to ISW1--><!--link ISW1 to SOP--><!--link SOP to LPR--><!--link PW1 to ETI--><!--link ETI to ISW2--><!--link ISW2 to ING3--><!--link ING3 to OPT1--><!--link PW2 to SICR--><!--link SICR to ASW--><!--link ASW to ING4--><!--link ING4 to OPT2--><!--link SDPP to INTA--><!--link INTA to PRY--><!--link PRY to PRCT--><!--link PRCT to OPT3--><!--link TFG to DSI--><!--link DSI to EEE--><!--link EEE to OPT4--><!--SRC=[jLRBZjD04BptLuoM8refTi8XQBMIyICQYIIMROWGuZ1oXc2Hs97j02kq7yEH0r-H7wDxiW6FiTYPPHdbL2wtfolLZxt8FugDPBnyNzKxqHQvOA9X5xpSoBAGzV67O8LwTln63o_OLm26Ptz-yRNY-mTHjnNB3tLJ4OVTdJEjSHKjbPj3kQvO8tUoQMlPfTB9jw9fM1RDsDLLN5StCc-hg2Z5zlgQFGa2RnG4lJVeFCthu_TrqLRDS-QuskFRWV11oZ6yNvNoIr6L53d2CvqEKCCmDAKkuso2tEM-HHK_YJCtYk3Fk_nInL6gn7Mna_KzegH176FyG3QYhgljjZfzmNis6Wsm-IBppDbnykQK9dx-aETtgKv7OJWTflkPXInZ4rbkUxRYN4cJoJf7QHx7L_7ADTSavNvYplRIbOs2V36RM2Ze_azZnIl7FCymCwuTdYgvRJGPMsZYFCXLcbiUnrLXu5dOwaLWGKO97Hi9qsLigk3BEFaxzTzCXQ8uDg9OaEUBLtDadoTK8NxFXW5s4WRcv33DxYCF-wehp2FrgcHcOPIC-yP__79cBiZSKxt7b1tmr3SJyC7DAfbPM2MARzBFDWMKXKjJ7L4QnroQYAV6piAVIlFoxOTYlPRbk_NbAHCuvTF5yS90bzP0kXge-samNKA5TdKSpGDa80r4cm1PfH_O1UK97QR_7K3LV1V7iWOgROsBrGkgXBieLYbGfNOnB4OLq-t5T85wQ1UZDWcgLtPHR8P03L7BAavGWHuHPnhGNEk5T45DC0t54GLgJdLH6aOKLUVI_W1gYUYYk2S0xGgzg1DG6q4lgWkWjZwTd7cWjhikYWiSq1AdOtu6QbNhXHq3q8RTHN4b1bgBDLd246Z_xRqzWPy0]--></g></svg>